<?xml version="1.0" encoding="UTF-8"?>
<svg xmlns="http://www.w3.org/2000/svg"
     width="200mm" height="250mm"
     viewBox="0 0 200 250">
<g fill="none" stroke="black" stroke-linecap="round" stroke-linejoin="round">
<path d="M136.36,150.01 L136.64,150.15" stroke-width="0.407"/>
<path d="M126.38,148.77 L126.53,148.85" stroke-width="0.251"/>
<path d="M132.32,157.32 L132.52,157.41" stroke-width="0.379"/>
<path d="M134.23,150.47 L134.36,150.53" stroke-width="0.497"/>
<path d="M133.48,156.72 L133.65,156.81" stroke-width="0.568"/>
<path d="M137.36,150.15 L137.50,150.22" stroke-width="0.289"/>
<path d="M127.08,151.33 L127.29,151.43" stroke-width="0.421"/>
<path d="M128.39,150.90 L128.78,151.09" stroke-width="0.374"/>
<path d="M134.84,153.28 L135.20,153.46" stroke-width="0.506"/>
<path d="M128.88,154.31 L129.20,154.47" stroke-width="0.542"/>
<path d="M132.18,150.24 L132.38,150.34" stroke-width="0.333"/>
<path d="M130.98,146.10 L131.31,146.27" stroke-width="0.359"/>
<path d="M136.93,152.63 L137.23,152.78" stroke-width="0.289"/>
<path d="M133.18,151.02 L133.43,151.14" stroke-width="0.469"/>
<path d="M127.50,157.05 L127.89,157.24" stroke-width="0.499"/>
<path d="M137.17,152.39 L137.50,152.56" stroke-width="0.326"/>
<path d="M130.10,149.74 L130.27,149.83" stroke-width="0.283"/>
<path d="M135.39,148.85 L135.56,148.94" stroke-width="0.421"/>
<path d="M125.55,150.91 L125.87,151.07" stroke-width="0.409"/>
<path d="M130.47,147.42 L130.80,147.59" stroke-width="0.433"/>
<path d="M128.78,149.56 L129.13,149.73" stroke-width="0.496"/>
<path d="M112.63,62.51 L112.82,62.60" stroke-width="0.485"/>
<path d="M109.42,61.27 L109.63,61.37" stroke-width="0.389"/>
<path d="M114.23,57.06 L114.39,57.14" stroke-width="0.315"/>
<path d="M110.33,54.32 L110.63,54.47" stroke-width="0.338"/>
<path d="M108.76,60.76 L108.93,60.84" stroke-width="0.303"/>
<path d="M108.56,52.91 L108.76,53.01" stroke-width="0.288"/>
<path d="M113.45,58.10 L113.57,58.16" stroke-width="0.568"/>
<path d="M109.78,63.83 L109.98,63.93" stroke-width="0.211"/>
<path d="M107.63,58.54 L107.83,58.64" stroke-width="0.563"/>
<path d="M102.53,59.81 L102.84,59.97" stroke-width="0.345"/>
<path d="M110.15,60.41 L110.46,60.57" stroke-width="0.355"/>
<path d="M110.15,58.42 L110.32,58.50" stroke-width="0.429"/>
<path d="M109.57,58.91 L109.68,58.97" stroke-width="0.497"/>
<path d="M110.46,54.32 L110.70,54.45" stroke-width="0.245"/>
<path d="M107.84,61.61 L108.11,61.75" stroke-width="0.561"/>
<path d="M101.67,56.77 L101.89,56.88" stroke-width="0.354"/>
<path d="M110.32,60.51 L110.49,60.59" stroke-width="0.364"/>
<path d="M107.67,54.69 L107.83,54.77" stroke-width="0.426"/>
<path d="M111.10,50.04 L111.38,50.18" stroke-width="0.511"/>
<path d="M105.29,55.14 L105.43,55.21" stroke-width="0.469"/>
<path d="M104.61,52.10 L105.01,52.30" stroke-width="0.278"/>
<path d="M107.51,52.81 L107.89,53.00" stroke-width="0.328"/>
<path d="M111.64,58.23 L111.94,58.38" stroke-width="0.279"/>
<path d="M77.19,149.49 L77.57,149.68" stroke-width="0.534"/>
<path d="M70.91,147.89 L71.24,148.05" stroke-width="0.488"/>
<path d="M71.77,148.08 L72.12,148.26" stroke-width="0.215"/>
<path d="M76.49,140.70 L76.69,140.80" stroke-width="0.433"/>
<path d="M72.28,141.28 L72.47,141.37" stroke-width="0.451"/>
<path d="M75.64,151.19 L75.80,151.27" stroke-width="0.406"/>
<path d="M79.38,148.78 L79.60,148.89" stroke-width="0.520"/>
<path d="M76.57,149.51 L76.71,149.57" stroke-width="0.583"/>
<path d="M74.59,148.95 L74.75,149.03" stroke-width="0.223"/>
<path d="M74.08,148.35 L74.23,148.43" stroke-width="0.558"/>
<path d="M76.94,142.93 L77.23,143.08" stroke-width="0.391"/>
<path d="M82.81,146.37 L83.08,146.51" stroke-width="0.408"/>
<path d="M76.41,141.05 L76.79,141.24" stroke-width="0.549"/>
<path d="M77.84,140.79 L78.23,140.99" stroke-width="0.384"/>
<path d="M74.78,143.54 L75.07,143.69" stroke-width="0.490"/>
<path d="M81.02,146.00 L81.25,146.12" stroke-width="0.220"/>
<path d="M79.66,143.50 L79.94,143.64" stroke-width="0.331"/>
<path d="M72.43,145.72 L72.79,145.90" stroke-width="0.260"/>
<path d="M77.85,142.80 L78.25,143.00" stroke-width="0.586"/>
<path d="M71.15,144.58 L71.29,144.65" stroke-width="0.497"/>
<path d="M75.43,153.07 L75.63,153.17" stroke-width="0.325"/>
<path d="M80.44,118.33 L80.79,118.51" stroke-width="0.423"/>
<path d="M82.43,128.76 L82.82,128.96" stroke-width="0.217"/>
<path d="M82.56,118.44 L82.82,118.57" stroke-width="0.533"/>
<path d="M77.25,119.25 L77.48,119.36" stroke-width="0.563"/>
<path d="M76.95,119.14 L77.31,119.32" stroke-width="0.520"/>
<path d="M75.68,126.83 L76.07,127.02" stroke-width="0.414"/>
<path d="M82.71,118.73 L82.91,118.83" stroke-width="0.552"/>
<path d="M73.29,126.03 L73.58,126.18" stroke-width="0.499"/>
<path d="M77.91,128.96 L78.05,129.03" stroke-width="0.334"/>
<path d="M83.01,127.35 L83.21,127.45" stroke-width="0.407"/>
<path d="M75.49,118.66 L75.59,118.71" stroke-width="0.429"/>
<path d="M82.67,128.00 L82.81,128.07" stroke-width="0.424"/>
<path d="M83.31,123.70 L83.48,123.78" stroke-width="0.293"/>
<path d="M75.63,127.89 L75.94,128.05" stroke-width="0.399"/>
<path d="M80.52,116.81 L80.85,116.97" stroke-width="0.582"/>
<path d="M79.28,121.00 L79.50,121.10" stroke-width="0.355"/>
<path d="M78.18,121.67 L78.38,121.77" stroke-width="0.480"/>
<path d="M82.37,127.63 L82.75,127.82" stroke-width="0.574"/>
<path d="M82.09,125.82 L82.43,125.99" stroke-width="0.377"/>
<path d="M80.42,120.90 L80.63,121.00" stroke-width="0.372"/>
<path d="M82.47,122.20 L82.70,122.31" stroke-width="0.582"/>
</g>
</svg>
