<?xml version="1.0" encoding="UTF-8"?>
<svg xmlns="http://www.w3.org/2000/svg"
     width="200mm" height="250mm"
     viewBox="0 0 200 250">
<g fill="none" stroke="black" stroke-linecap="round" stroke-linejoin="round">
<path d="M95.00,39.50 L95.50,39.50 L96.00,39.50 L96.50,39.50 L97.00,39.50 L97.50,39.50 L98.00,39.50 L98.50,39.50 L99.00,39.50 L99.50,39.50 L100.00,39.50 L100.50,39.50 L101.00,39.50 L101.50,39.50 L102.00,39.50 L102.50,39.50 L103.00,39.50 L103.50,39.50 L104.00,39.50 L104.50,39.50 L105.00,39.50 L104.50,40.00 L104.00,40.00 L103.50,40.00 L103.00,40.00 L102.50,40.00 L102.00,40.00 L101.50,40.00 L101.00,40.00 L100.50,40.00 L100.00,40.00 L99.50,40.00 L99.00,40.00 L98.50,40.00 L98.00,40.00 L97.50,40.00 L97.00,40.00 L96.50,40.00 L96.00,40.00 L95.50,40.00 L95.00,40.00 L94.50,40.00 L94.00,40.00 L93.50,40.00 L93.00,40.00 L92.50,40.50 L92.00,40.50 L91.50,41.00 L91.00,41.00 L90.50,41.50 L90.00,41.50 L89.50,42.00 L89.00,42.00 L88.50,42.50 L89.00,42.50 L89.50,42.50 L90.00,42.00 L90.50,42.00 L91.00,41.50 L91.50,41.50 L92.00,41.00 L92.50,41.00 L93.00,40.50 L93.50,40.50 L94.00,40.50 L94.50,40.50 L95.00,40.50 L95.50,40.50 L96.00,40.50 L96.50,40.50 L97.00,40.50 L97.50,40.50 L98.00,40.50 L98.50,40.50 L99.00,40.50 L99.50,40.50 L100.00,40.50 L100.50,40.50 L101.00,40.50 L101.50,40.50 L102.00,40.50 L102.50,40.50 L103.00,40.50 L103.50,40.50 L104.00,40.50 L104.50,40.50 L105.00,40.00 L105.50,40.00 L106.00,40.00 L106.50,40.00 L107.00,40.00 L106.50,40.50 L106.00,40.50 L105.50,40.50 L105.00,40.50 L104.50,41.00 L104.00,41.00 L103.50,41.00 L103.00,41.00 L102.50,41.00 L102.00,41.00 L101.50,41.00 L101.00,41.00 L100.50,41.00 L100.00,41.00 L99.50,41.00 L99.00,41.00 L98.50,41.00 L98.00,41.00 L97.50,41.00 L97.00,41.00 L96.50,41.00 L96.00,41.00 L95.50,41.00 L95.00,41.00 L94.50,41.00 L94.00,41.00 L93.50,41.00 L93.00,41.00 L92.50,41.50 L92.00,41.50 L91.50,42.00 L91.00,42.00 L90.50,42.50 L90.00,42.50 L89.50,43.00 L89.00,43.00 L88.50,43.00 L88.00,43.00 L87.50,43.00 L87.00,43.50 L87.50,43.50 L88.00,43.50 L88.50,43.50 L89.00,43.50 L89.50,43.50 L90.00,43.00 L90.50,43.00 L91.00,42.50 L91.50,42.50 L92.00,42.00 L92.50,42.00 L93.00,41.50 L93.50,41.50 L94.00,41.50 L94.50,41.50 L95.00,41.50 L95.50,41.50 L96.00,41.50 L96.50,41.50 L97.00,41.50" stroke-width="1.355"/>
<path d="M108.00,41.00 L108.50,41.00 L109.00,41.00 L108.50,41.50 L108.00,41.50 L107.50,41.50 L107.00,41.50 L106.50,41.50 L106.00,41.50 L105.50,41.50 L105.00,41.50 L105.50,42.00 L106.00,42.00 L106.50,42.00 L107.00,42.00 L107.50,42.00 L108.00,42.00 L108.50,42.00 L109.00,41.50 L109.50,41.50 L110.00,41.50 L109.50,42.00 L109.00,42.00 L108.50,42.50 L108.00,42.50 L107.50,42.50 L107.00,42.50" stroke-width="0.735"/>
<path d="M111.00,42.50 L111.50,42.50 L111.00,43.00 L110.50,43.00 L110.00,43.00 L109.50,43.00 L109.00,43.00 L109.00,43.50 L109.50,43.50 L110.00,43.50 L110.50,43.50 L111.00,43.50 L111.50,43.00 L112.00,43.00 L112.50,43.00 L112.00,43.50 L111.50,43.50 L111.00,44.00 L110.50,44.00 L110.00,44.00" stroke-width="0.700"/>
<path d="M112.50,43.50 L113.00,43.50 L112.50,44.00 L112.00,44.00 L111.50,44.00 L111.00,44.50 L111.50,44.50 L112.00,44.50 L112.50,44.50 L113.00,44.00 L113.50,44.00 L113.00,44.50 L113.50,44.50 L114.00,44.50 L113.50,45.00 L113.00,45.00 L112.50,45.00 L112.00,45.00 L111.50,45.00 L112.00,45.50 L112.50,45.50 L113.00,45.50 L113.50,45.50 L114.00,45.00 L114.50,45.00 L114.00,45.50 L114.50,45.50 L115.00,45.50 L114.50,46.00 L114.00,46.00 L113.50,46.00 L113.00,46.00 L112.50,46.00" stroke-width="0.765"/>
<path d="M86.00,44.50 L86.50,44.50 L87.00,44.50 L87.50,44.50 L88.00,44.50 L88.50,44.50 L89.00,44.50 L88.50,45.00 L88.00,45.00 L87.50,45.00 L87.00,45.00 L86.50,45.00 L86.00,45.00 L85.50,45.00 L85.00,45.50 L85.50,45.50 L86.00,45.50 L86.50,45.50 L87.00,45.50 L87.50,45.50 L88.00,45.50 L87.50,46.00 L87.00,46.00 L86.50,46.00 L86.00,46.00 L85.50,46.00 L85.00,46.00 L84.50,46.00 L84.00,46.50 L84.50,46.50 L85.00,46.50 L85.50,46.50 L86.00,46.50 L86.50,46.50 L86.00,47.00 L85.50,47.00 L85.00,47.00 L84.50,47.00 L84.00,47.00 L83.50,47.00 L83.00,47.50 L83.50,47.50 L84.00,47.50 L84.50,47.50 L85.00,47.50 L85.50,47.50 L86.00,47.50 L85.50,48.00 L85.00,48.00 L84.50,48.00 L84.00,48.00 L83.50,48.00 L83.00,48.00 L82.50,48.50 L83.00,48.50 L83.50,48.50 L84.00,48.50 L84.50,48.50 L85.00,48.50 L84.50,49.00 L84.00,49.00 L83.50,49.00 L83.00,49.00 L82.50,49.00 L82.00,49.00 L82.00,49.50 L82.50,49.50 L83.00,49.50 L83.50,49.50 L84.00,49.50 L83.50,50.00 L83.00,50.00 L82.50,50.00 L82.00,50.00 L81.50,50.00 L81.50,50.50 L82.00,50.50 L82.50,50.50 L83.00,50.50 L83.50,50.50 L84.00,50.00" stroke-width="1.005"/>
<path d="M115.00,46.00 L115.50,46.00 L115.00,46.50 L114.50,46.50 L114.00,46.50 L113.50,46.50 L114.00,47.00 L114.50,47.00 L115.00,47.00 L115.50,46.50 L116.00,46.50 L115.50,47.00 L116.00,47.00 L116.50,47.00 L116.00,47.50 L115.50,47.50 L115.00,47.50 L114.50,47.50 L114.00,47.50 L114.50,48.00 L115.00,48.00 L115.50,48.00 L116.00,48.00 L116.50,47.50 L117.00,47.50 L116.50,48.00 L117.00,48.00 L116.50,48.50 L116.00,48.50 L115.50,48.50 L115.00,48.50 L115.50,49.00 L116.00,49.00 L116.50,49.00 L117.00,48.50 L117.50,48.50 L117.00,49.00 L117.50,49.00 L118.00,49.00 L117.50,49.50 L117.00,49.50 L116.50,49.50 L116.00,49.50 L116.00,50.00 L116.50,50.00 L117.00,50.00 L117.50,50.00 L118.00,49.50 L118.00,50.00 L118.50,50.00 L118.00,50.50 L117.50,50.50 L117.00,50.50 L116.50,50.50 L116.50,51.00 L117.00,51.00 L117.50,51.00 L118.00,51.00 L118.50,50.50 L118.50,51.00 L119.00,51.00 L118.50,51.50 L118.00,51.50 L117.50,51.50 L117.00,51.50 L117.00,52.00 L117.50,52.00 L118.00,52.00 L118.50,52.00 L119.00,51.50 L119.00,52.00 L119.50,52.00 L119.00,52.50 L118.50,52.50 L118.00,52.50 L117.50,52.50 L117.50,53.00 L118.00,53.00 L118.50,53.00 L119.00,53.00 L119.50,52.50 L119.50,53.00 L120.00,53.00 L119.50,53.50 L119.00,53.50 L118.50,53.50 L118.00,53.50 L118.00,54.00 L118.50,54.00 L119.00,54.00 L119.50,54.00 L120.00,53.50 L120.00,54.00 L119.50,54.50 L119.00,54.50 L118.50,54.50 L118.00,54.50 L118.50,55.00 L119.00,55.00 L119.50,55.00 L120.00,54.50 L120.00,55.00 L120.50,55.00 L120.00,55.50 L119.50,55.50 L119.00,55.50 L118.50,55.50 L118.50,56.00 L119.00,56.00 L119.50,56.00 L120.00,56.00 L120.50,55.50 L120.50,56.00 L120.00,56.50 L119.50,56.50 L119.00,56.50 L118.50,56.50 L118.50,57.00 L119.00,57.00 L119.50,57.00 L120.00,57.00 L120.50,56.50 L120.50,57.00 L120.00,57.50 L119.50,57.50 L119.00,57.50 L119.00,58.00 L119.50,58.00 L120.00,58.00 L120.50,57.50 L120.50,58.00 L120.00,58.50 L119.50,58.50 L119.00,58.50 L119.00,59.00 L119.50,59.00 L120.00,59.00 L120.50,58.50 L120.50,59.00 L120.00,59.50 L119.50,59.50 L119.00,59.50 L119.00,60.00 L119.50,60.00 L120.00,60.00 L120.50,59.50 L120.50,60.00 L120.00,60.50 L119.50,60.50 L119.00,60.50 L119.00,61.00 L119.50,61.00 L120.00,61.00 L120.50,60.50 L120.50,61.00 L120.00,61.50 L119.50,61.50 L119.00,61.50 L119.00,62.00 L119.50,62.00 L120.00,62.00 L120.50,61.50 L120.50,62.00 L120.00,62.50 L119.50,62.50 L119.00,62.50 L118.50,63.00 L119.00,63.00 L119.50,63.00 L120.00,63.00 L120.50,62.50 L120.50,63.00 L120.00,63.50 L119.50,63.50 L119.00,63.50 L118.50,63.50 L118.50,64.00 L119.00,64.00 L119.50,64.00 L120.00,64.00 L120.50,63.50 L120.50,64.00 L120.00,64.50 L119.50,64.50 L119.00,64.50 L118.50,64.50 L118.50,65.00 L119.00,65.00 L119.50,65.00 L120.00,65.00 L120.50,64.50 L120.50,65.00 L120.00,65.50 L119.50,65.50 L119.00,65.50 L118.50,65.50 L118.00,65.50 L118.00,66.00 L118.50,66.00 L119.00,66.00 L119.50,66.00 L120.00,66.00 L119.50,66.50 L119.00,66.50 L118.50,66.50 L118.00,66.50 L117.50,67.00 L118.00,67.00 L118.50,67.00 L119.00,67.00 L119.50,67.00 L120.00,66.50 L120.00,67.00 L119.50,67.50 L119.00,67.50 L118.50,67.50 L118.00,67.50 L117.50,67.50 L117.00,68.00 L117.50,68.00 L118.00,68.00 L118.50,68.00 L119.00,68.00 L119.50,68.00 L119.00,68.50 L118.50,68.50 L118.00,68.50 L117.50,68.50 L117.00,68.50 L116.50,69.00 L117.00,69.00 L117.50,69.00 L118.00,69.00 L118.50,69.00 L119.00,69.00 L118.50,69.50 L118.00,69.50 L117.50,69.50 L117.00,69.50 L116.50,69.50 L116.00,70.00 L116.50,70.00 L117.00,70.00 L117.50,70.00 L118.00,70.00 L118.50,70.00 L118.00,70.50 L117.50,70.50 L117.00,70.50 L116.50,70.50 L116.00,70.50 L115.50,71.00 L116.00,71.00 L116.50,71.00 L117.00,71.00 L117.50,71.00 L118.00,71.00 L117.50,71.50 L117.00,71.50 L116.50,71.50 L116.00,71.50 L115.50,71.50 L115.00,71.50 L114.50,72.00 L115.00,72.00 L115.50,72.00 L116.00,72.00 L116.50,72.00 L117.00,72.00 L116.50,72.50 L116.00,72.50 L115.50,72.50 L115.00,72.50 L114.50,72.50 L114.00,72.50 L114.00,73.00 L114.50,73.00 L115.00,73.00 L115.50,73.00 L116.00,73.00 L116.50,73.00 L117.00,72.50" stroke-width="2.010"/>
<path d="M81.00,51.00 L81.50,51.00 L82.00,51.00 L82.50,51.00 L83.00,51.00 L83.50,51.00 L83.00,51.50 L82.50,51.50 L82.00,51.50 L81.50,51.50 L81.00,51.50 L80.50,52.00 L81.00,52.00 L81.50,52.00 L82.00,52.00 L82.50,52.00 L83.00,52.00 L82.50,52.50 L82.00,52.50 L81.50,52.50 L81.00,52.50 L80.50,52.50 L80.00,53.00 L80.50,53.00 L81.00,53.00 L81.50,53.00 L82.00,53.00 L82.50,53.00 L82.00,53.50 L81.50,53.50 L81.00,53.50 L80.50,53.50 L80.00,53.50 L80.00,54.00 L80.50,54.00 L81.00,54.00 L81.50,54.00 L82.00,54.00 L81.50,54.50 L81.00,54.50 L80.50,54.50 L80.00,54.50 L79.50,55.00 L80.00,55.00 L80.50,55.00 L81.00,55.00 L81.50,55.00 L82.00,54.50" stroke-width="0.840"/>
<path d="M79.50,55.50 L80.00,55.50 L80.50,55.50 L81.00,55.50 L81.50,55.50 L81.00,56.00 L80.50,56.00 L80.00,56.00 L79.50,56.00 L79.50,56.50 L80.00,56.50 L80.50,56.50 L81.00,56.50 L81.50,56.00 L81.50,56.50 L81.00,57.00 L80.50,57.00 L80.00,57.00 L79.50,57.00 L79.50,57.50 L80.00,57.50 L80.50,57.50 L81.00,57.50 L81.50,57.00" stroke-width="0.720"/>
<path d="M79.50,58.00 L80.00,58.00 L80.50,58.00 L81.00,58.00 L80.50,58.50 L80.00,58.50 L79.50,58.50 L79.50,59.00 L80.00,59.00 L80.50,59.00 L81.00,58.50 L81.00,59.00 L80.50,59.50 L80.00,59.50 L79.50,59.50 L79.50,60.00 L80.00,60.00 L80.50,60.00 L81.00,59.50 L81.00,60.00 L80.50,60.50 L80.00,60.50 L79.50,60.50 L79.50,61.00 L80.00,61.00 L80.50,61.00 L81.00,60.50 L81.00,61.00 L80.50,61.50 L80.00,61.50 L79.50,61.50 L79.50,62.00 L80.00,62.00 L80.50,62.00 L81.00,61.50 L81.00,62.00 L80.50,62.50 L80.00,62.50 L79.50,62.50 L79.50,63.00 L80.00,63.00 L80.50,63.00 L81.00,62.50 L81.00,63.00 L81.50,63.00 L81.00,63.50 L80.50,63.50 L80.00,63.50 L79.50,63.50 L79.50,64.00 L80.00,64.00 L80.50,64.00 L81.00,64.00 L81.50,63.50 L81.50,64.00 L81.00,64.50 L80.50,64.50 L80.00,64.50 L79.50,64.50 L79.50,65.00 L80.00,65.00 L80.50,65.00 L81.00,65.00 L81.50,64.50 L81.50,65.00 L81.00,65.50 L80.50,65.50 L80.00,65.50 L80.00,66.00 L80.50,66.00 L81.00,66.00 L81.50,65.50 L82.00,65.50 L81.50,66.00 L82.00,66.00 L81.50,66.50 L81.00,66.50 L80.50,66.50 L80.00,66.50 L80.00,67.00 L80.50,67.00 L81.00,67.00 L81.50,67.00 L82.00,66.50 L82.00,67.00 L82.50,67.00 L82.00,67.50 L81.50,67.50 L81.00,67.50 L80.50,67.50 L80.50,68.00 L81.00,68.00 L81.50,68.00 L82.00,68.00 L82.50,67.50 L82.50,68.00 L83.00,68.00 L82.50,68.50 L82.00,68.50 L81.50,68.50 L81.00,68.50 L81.00,69.00 L81.50,69.00 L82.00,69.00 L82.50,69.00 L83.00,68.50 L83.00,69.00 L83.50,69.00 L83.00,69.50 L82.50,69.50 L82.00,69.50 L81.50,69.50 L81.50,70.00 L82.00,70.00 L82.50,70.00 L83.00,70.00 L83.50,69.50 L83.50,70.00 L84.00,70.00 L83.50,70.50 L83.00,70.50 L82.50,70.50 L82.00,70.50 L82.00,71.00 L82.50,71.00 L83.00,71.00 L83.50,71.00 L84.00,70.50 L84.00,71.00 L84.50,71.00 L84.00,71.50 L83.50,71.50 L83.00,71.50 L82.50,71.50 L83.00,72.00 L83.50,72.00 L84.00,72.00 L84.50,71.50 L85.00,71.50 L84.50,72.00 L85.00,72.00 L85.50,72.00 L85.00,72.50 L84.50,72.50 L84.00,72.50 L83.50,72.50 L83.00,72.50 L83.50,73.00 L84.00,73.00 L84.50,73.00 L85.00,73.00 L85.50,72.50 L86.00,72.50 L85.50,73.00 L86.00,73.00 L85.50,73.50 L85.00,73.50 L84.50,73.50 L84.00,73.50 L84.50,74.00 L85.00,74.00 L85.50,74.00 L86.00,73.50 L86.50,73.50 L86.00,74.00 L86.50,74.00 L87.00,74.00 L87.50,74.00 L87.00,74.50 L86.50,74.50 L86.00,74.50 L85.50,74.50 L85.00,74.50 L85.50,75.00 L86.00,75.00 L86.50,75.00 L87.00,75.00 L87.50,74.50 L88.00,74.50 L87.50,75.00 L88.00,75.00 L88.50,75.00 L88.00,75.50 L87.50,75.50 L87.00,75.50 L86.50,75.50 L86.00,75.50 L86.50,76.00 L87.00,76.00 L87.50,76.00 L88.00,76.00 L88.50,75.50 L89.00,75.50 L88.50,76.00 L89.00,76.00 L89.50,76.00 L90.00,76.00 L89.50,76.50 L89.00,76.50 L88.50,76.50 L88.00,76.50 L87.50,76.50 L87.00,76.50 L87.50,77.00 L88.00,77.00 L88.50,77.00 L89.00,77.00 L89.50,77.00 L90.00,76.50 L90.50,76.50 L91.00,76.50 L90.50,77.00 L90.00,77.00 L89.50,77.50 L89.00,77.50 L88.50,77.50 L89.00,78.00 L89.50,78.00 L90.00,77.50 L90.50,77.50 L91.00,77.00 L91.50,77.00 L91.00,77.50 L91.50,77.50 L92.00,77.50 L92.50,77.50 L93.00,77.50 L92.50,78.00 L92.00,78.00 L91.50,78.00 L91.00,78.00 L90.50,78.00 L90.00,78.00 L90.50,78.50 L91.00,78.50 L91.50,78.50 L92.00,78.50 L92.50,78.50 L93.00,78.00 L93.50,78.00 L94.00,78.00 L93.50,78.50 L93.00,78.50 L92.50,79.00 L93.00,79.00 L93.50,79.00 L94.00,78.50 L94.50,78.50 L95.00,78.50 L94.50,79.00 L94.00,79.00" stroke-width="1.855"/>
<path d="M113.50,73.50 L114.00,73.50 L114.50,73.50 L115.00,73.50 L115.50,73.50 L116.00,73.50 L115.50,74.00 L115.00,74.00 L114.50,74.00 L114.00,74.00 L113.50,74.00 L113.00,74.00 L112.50,74.00 L112.00,74.50 L112.50,74.50 L113.00,74.50 L113.50,74.50 L114.00,74.50 L114.50,74.50 L115.00,74.50 L114.50,75.00 L114.00,75.00 L113.50,75.00 L113.00,75.00 L112.50,75.00 L112.00,75.00 L111.50,75.00 L111.00,75.50 L111.50,75.50 L112.00,75.50 L112.50,75.50 L113.00,75.50 L113.50,75.50 L114.00,75.50 L113.50,76.00 L113.00,76.00 L112.50,76.00 L112.00,76.00 L111.50,76.00 L111.00,76.00 L110.50,76.00 L110.00,76.00 L109.50,76.50 L109.00,76.50 L108.50,77.00 L109.00,77.00 L109.50,77.00 L110.00,76.50 L110.50,76.50 L111.00,76.50 L111.50,76.50 L112.00,76.50 L112.50,76.50 L113.00,76.50 L112.50,77.00 L112.00,77.00 L111.50,77.00 L111.00,77.00 L110.50,77.00 L110.00,77.00 L109.50,77.50 L109.00,77.50 L108.50,77.50 L108.00,77.50 L107.50,77.50 L107.00,77.50 L106.50,78.00 L106.00,78.00 L105.50,78.50 L105.00,78.50 L105.00,79.00 L105.50,79.00 L106.00,78.50 L106.50,78.50 L107.00,78.00 L107.50,78.00 L108.00,78.00 L108.50,78.00 L109.00,78.00 L109.50,78.00 L110.00,77.50 L110.50,77.50 L111.00,77.50 L111.50,77.50 L111.00,78.00 L110.50,78.00 L110.00,78.00 L109.50,78.50 L109.00,78.50 L108.50,78.50 L108.00,78.50 L107.50,78.50 L107.00,78.50 L106.50,79.00 L106.00,79.00" stroke-width="1.075"/>
<path d="M124.00,78.50 L124.50,78.50 L125.00,78.50 L125.50,78.50 L126.00,78.50 L126.50,78.50 L127.00,78.50 L127.50,78.50 L127.00,79.00 L126.50,79.00 L126.00,79.00 L125.50,79.00 L125.00,79.00 L124.50,79.00 L124.50,79.50 L125.00,79.50 L125.50,79.50 L126.00,79.50 L126.50,79.50 L127.00,79.50 L127.50,79.00 L128.00,79.00 L128.50,79.00 L128.00,79.50 L127.50,79.50 L127.00,80.00 L126.50,80.00 L126.00,80.50 L125.50,80.00 L125.00,80.00 L124.50,80.00 L124.00,80.00 L123.50,80.00 L124.00,80.50 L124.50,80.50 L125.00,80.50 L125.50,80.50 L125.00,81.00 L124.50,81.00 L124.00,81.00 L124.50,81.50 L125.00,81.50 L125.50,81.00 L126.00,81.00 L126.50,81.00 L127.00,81.00 L127.50,81.00 L128.00,80.50 L127.50,80.00 L128.00,80.00 L128.50,79.50 L129.00,79.50 L129.50,79.50 L129.00,80.00 L128.50,80.00 L128.50,80.50 L129.00,80.50 L129.50,80.00 L130.00,80.00 L130.50,80.00 L131.00,80.00 L131.50,80.00 L131.00,80.50 L130.50,80.50 L130.00,80.50 L129.50,80.50 L129.00,81.00 L128.50,81.00 L128.00,81.50 L127.50,81.50 L127.00,81.50 L126.50,81.50 L126.00,81.50 L125.50,81.50 L125.50,82.00 L126.00,82.00 L126.50,82.00 L127.00,82.00 L127.50,82.00 L128.00,82.00 L128.50,82.00 L129.00,82.00 L129.50,81.50 L129.50,81.00 L130.00,81.00 L130.50,81.00 L131.00,81.00 L131.50,80.50 L132.00,80.50 L132.50,80.50 L132.00,81.00 L131.50,81.00 L131.00,81.50 L130.50,81.50 L130.00,81.50" stroke-width="1.075"/>
<path d="M82.50,79.00 L83.00,79.00 L83.50,79.00 L84.00,79.00 L84.50,79.00 L85.00,79.00 L85.50,79.00 L86.00,79.00 L86.50,79.00 L87.00,79.00 L87.50,79.00 L88.00,79.00 L88.50,79.00 L89.00,79.00 L89.50,79.00 L90.00,79.00 L90.50,79.00 L90.00,79.50 L89.50,79.50 L89.00,79.50 L88.50,79.50 L88.00,79.50 L87.50,79.50 L87.00,79.50 L86.50,79.50 L86.00,79.50 L85.50,79.50 L85.00,79.50 L84.50,79.50 L84.00,79.50 L83.50,79.50 L83.00,79.50 L82.50,79.50 L82.00,79.50 L81.50,80.00 L82.00,80.00 L82.50,80.00 L83.00,80.00 L83.50,80.00 L84.00,80.00 L84.50,80.00 L85.00,80.00 L85.50,80.00 L86.00,80.00 L86.50,80.00 L87.00,80.00 L87.50,80.00 L88.00,80.00 L88.50,80.00 L89.00,80.00 L89.50,80.00 L90.00,80.00 L90.50,79.50 L91.00,79.50 L91.50,79.50 L92.00,79.50 L92.50,79.50 L93.00,79.50 L92.50,80.00 L92.00,80.00 L91.50,80.00 L91.00,80.00 L90.50,80.00 L90.00,80.50 L89.50,80.50 L89.00,80.50 L88.50,80.50 L88.00,80.50 L87.50,80.50 L87.00,80.50 L86.50,80.50 L86.00,80.50 L85.50,80.50 L85.00,80.50 L84.50,80.50 L84.00,80.50 L83.50,80.50 L83.00,80.50 L82.50,80.50 L82.00,80.50 L81.50,80.50 L81.50,81.00 L82.00,81.00 L82.50,81.00 L83.00,81.00 L83.50,81.00 L83.00,81.50 L82.50,81.50 L82.00,81.50 L81.50,81.50 L81.00,81.50 L81.00,82.00 L81.50,82.00 L82.00,82.00 L82.50,82.00 L83.00,82.00 L82.50,82.50 L82.00,82.50 L81.50,82.50 L81.00,82.50 L81.00,83.00 L81.50,83.00 L82.00,83.00 L82.50,83.00 L83.00,82.50 L83.00,83.00 L82.50,83.50 L82.00,83.50 L81.50,83.50 L81.00,83.50 L80.50,84.00 L81.00,84.00 L81.50,84.00 L82.00,84.00 L82.50,84.00 L82.00,84.50 L81.50,84.50 L81.00,84.50 L80.50,84.50 L80.50,85.00 L81.00,85.00 L81.50,85.00 L82.00,85.00 L82.50,84.50 L82.50,85.00 L82.00,85.50 L81.50,85.50 L81.00,85.50 L80.50,85.50 L80.50,86.00 L81.00,86.00 L81.50,86.00 L82.00,86.00 L82.50,85.50" stroke-width="1.270"/>
<path d="M107.00,79.00 L107.50,79.00 L107.00,79.50 L107.50,79.50 L108.00,79.50 L108.50,79.50 L109.00,79.50 L109.50,79.00 L110.00,79.00 L110.50,79.00 L111.00,79.00 L111.50,79.00 L112.00,79.00 L112.50,79.00 L113.00,79.00 L113.50,79.00 L114.00,79.00 L114.50,79.00 L115.00,79.00 L115.50,79.00 L116.00,79.00 L116.50,79.00 L117.00,79.00 L116.50,79.50 L116.00,79.50 L115.50,79.50 L115.00,79.50 L114.50,79.50 L114.00,79.50 L113.50,79.50 L113.00,79.50 L112.50,79.50 L112.00,79.50 L111.50,79.50 L111.00,79.50 L110.50,79.50 L110.00,79.50 L109.50,79.50 L109.00,80.00 L108.50,80.00 L108.00,80.00 L107.50,80.00 L107.00,80.00 L106.50,80.00 L106.00,80.00 L105.50,80.00 L105.50,80.50 L106.00,80.50 L106.50,80.50 L107.00,80.50 L107.50,80.50 L108.00,80.50 L108.50,80.50 L109.00,80.50 L109.50,80.00 L110.00,80.00 L110.50,80.00 L111.00,80.00 L111.50,80.00 L112.00,80.00 L112.50,80.00 L113.00,80.00 L113.50,80.00 L114.00,80.00 L114.50,80.00 L115.00,80.00 L115.50,80.00 L116.00,80.00 L116.50,80.00 L117.00,79.50 L117.50,79.50 L117.00,80.00 L117.50,80.00 L118.00,80.00 L117.50,80.50 L117.00,80.50 L116.50,80.50 L116.00,80.50 L115.50,80.50 L115.00,80.50 L114.50,80.50 L114.00,80.50 L113.50,80.50 L113.00,80.50 L112.50,80.50 L112.00,80.50 L111.50,80.50 L111.00,80.50 L110.50,80.50 L110.00,80.50 L109.50,80.50" stroke-width="1.055"/>
<path d="M118.00,80.50 L117.50,81.00 L117.00,81.00 L116.50,81.00 L116.00,81.00 L116.50,81.50 L117.00,81.50 L117.50,81.50 L118.00,81.00 L118.00,81.50 L118.50,81.50 L118.00,82.00 L117.50,82.00 L117.00,82.00 L116.50,82.00 L116.50,82.50 L117.00,82.50 L117.50,82.50 L118.00,82.50 L118.50,82.00 L118.50,82.50 L118.00,83.00 L117.50,83.00 L117.00,83.00 L116.50,83.00 L117.00,83.50 L117.50,83.50 L118.00,83.50 L118.50,83.00 L118.50,83.50 L118.00,84.00 L117.50,84.00 L117.00,84.00 L117.00,84.50 L117.50,84.50 L118.00,84.50 L118.50,84.00 L119.00,84.00 L118.50,84.50 L119.00,84.50 L118.50,85.00 L118.00,85.00 L117.50,85.00 L117.00,85.00 L117.00,85.50 L117.50,85.50 L118.00,85.50 L118.50,85.50 L119.00,85.00 L119.00,85.50 L118.50,86.00 L118.00,86.00 L117.50,86.00 L117.50,86.50 L118.00,86.50 L118.50,86.50 L119.00,86.00 L119.00,86.50 L119.50,86.50 L119.00,87.00 L118.50,87.00 L118.00,87.00 L117.50,87.00 L117.50,87.50 L118.00,87.50 L118.50,87.50 L119.00,87.50 L119.50,87.00 L119.50,87.50 L119.00,88.00 L118.50,88.00 L118.00,88.00 L117.50,88.00 L118.00,88.50 L118.50,88.50 L119.00,88.50 L119.50,88.00 L119.50,88.50 L120.00,88.50 L119.50,89.00 L119.00,89.00 L118.50,89.00 L118.00,89.00 L118.00,89.50 L118.50,89.50 L119.00,89.50 L119.50,89.50 L120.00,89.00 L120.00,89.50 L119.50,90.00 L119.00,90.00 L118.50,90.00 L118.00,90.00 L118.50,90.50 L119.00,90.50 L119.50,90.50 L120.00,90.00 L120.00,90.50 L119.50,91.00 L119.00,91.00 L118.50,91.00 L118.50,91.50 L119.00,91.50 L119.50,91.50 L120.00,91.00 L120.50,91.00 L120.00,91.50 L120.50,91.50 L120.00,92.00 L119.50,92.00 L119.00,92.00 L118.50,92.00 L118.50,92.50 L119.00,92.50 L119.50,92.50 L120.00,92.50 L120.50,92.00 L120.50,92.50 L120.00,93.00 L119.50,93.00 L119.00,93.00 L119.00,93.50 L119.50,93.50 L120.00,93.50 L120.50,93.00 L120.50,93.50 L121.00,93.50 L120.50,94.00 L120.00,94.00 L119.50,94.00 L119.00,94.00 L119.00,94.50 L119.50,94.50 L120.00,94.50 L120.50,94.50 L121.00,94.00 L121.00,94.50 L120.50,95.00 L120.00,95.00 L119.50,95.00 L119.00,95.00 L119.50,95.50 L120.00,95.50 L120.50,95.50 L121.00,95.00 L121.00,95.50 L120.50,96.00 L120.00,96.00 L119.50,96.00 L119.50,96.50 L120.00,96.50 L120.50,96.50 L121.00,96.00 L121.50,96.00 L121.00,96.50 L121.50,96.50 L121.00,97.00 L120.50,97.00 L120.00,97.00 L119.50,97.00 L119.50,97.50 L120.00,97.50 L120.50,97.50 L121.00,97.50 L121.50,97.00 L121.50,97.50 L121.00,98.00 L120.50,98.00 L120.00,98.00 L120.00,98.50 L120.50,98.50 L121.00,98.50 L121.50,98.00 L122.00,98.00 L121.50,98.50 L122.00,98.50 L121.50,99.00 L121.00,99.00 L120.50,99.00 L120.00,99.00 L120.50,99.50 L121.00,99.50 L121.50,99.50 L122.00,99.00 L122.50,99.00 L122.00,99.50 L122.50,99.50 L122.00,100.00 L121.50,100.00 L121.00,100.00 L120.50,100.00 L121.00,100.50 L121.50,100.50 L122.00,100.50 L122.50,100.00 L122.50,100.50 L123.00,100.50 L122.50,101.00 L122.00,101.00 L121.50,101.00 L121.00,101.00 L121.00,101.50 L121.50,101.50 L122.00,101.50 L122.50,101.50 L123.00,101.00 L123.00,101.50 L122.50,102.00 L122.00,102.00 L121.50,102.00 L121.00,102.00 L121.50,102.50 L122.00,102.50 L122.50,102.50 L123.00,102.00 L123.00,102.50 L122.50,103.00 L122.00,103.00 L121.50,103.00 L121.50,103.50 L122.00,103.50 L122.50,103.50 L123.00,103.00 L123.50,103.00 L123.00,103.50 L123.50,103.50 L123.00,104.00 L122.50,104.00 L122.00,104.00 L121.50,104.00 L121.50,104.50 L122.00,104.50 L122.50,104.50 L123.00,104.50 L123.50,104.00 L123.50,104.50 L123.00,105.00 L122.50,105.00 L122.00,105.00 L122.00,105.50 L122.50,105.50 L123.00,105.50 L123.50,105.00 L123.50,105.50 L124.00,105.50 L123.50,106.00 L123.00,106.00 L122.50,106.00 L122.00,106.00 L122.00,106.50 L122.50,106.50 L123.00,106.50 L123.50,106.50 L124.00,106.00 L124.00,106.50 L123.50,107.00 L123.00,107.00 L122.50,107.00 L122.00,107.00 L122.50,107.50 L123.00,107.50 L123.50,107.50 L124.00,107.00 L124.00,107.50 L124.50,107.50 L124.00,108.00 L123.50,108.00 L123.00,108.00 L122.50,108.00 L122.50,108.50 L123.00,108.50 L123.50,108.50 L124.00,108.50 L124.50,108.00 L124.50,108.50 L124.00,109.00 L123.50,109.00 L123.00,109.00 L122.50,109.00 L123.00,109.50 L123.50,109.50 L124.00,109.50 L124.50,109.00 L124.50,109.50 L124.00,110.00 L123.50,110.00 L123.00,110.00 L123.00,110.50 L123.50,110.50 L124.00,110.50 L124.50,110.00 L125.00,110.00 L124.50,110.50 L125.00,110.50 L124.50,111.00 L124.00,111.00 L123.50,111.00 L123.00,111.00 L123.00,111.50 L123.50,111.50 L124.00,111.50 L124.50,111.50 L125.00,111.00 L125.00,111.50 L124.50,112.00 L124.00,112.00 L123.50,112.00 L123.50,112.50 L124.00,112.50 L124.50,112.50 L125.00,112.00 L125.00,112.50 L125.50,112.50 L125.00,113.00 L124.50,113.00 L124.00,113.00 L123.50,113.00 L123.50,113.50 L124.00,113.50 L124.50,113.50 L125.00,113.50 L125.50,113.00 L125.50,113.50 L125.00,114.00 L124.50,114.00 L124.00,114.00 L123.50,114.00 L124.00,114.50 L124.50,114.50 L125.00,114.50 L125.50,114.00 L125.50,114.50 L125.00,115.00 L124.50,115.00 L124.00,115.00 L124.00,115.50 L124.50,115.50 L125.00,115.50 L125.50,115.00 L126.00,115.00 L125.50,115.50 L126.00,115.50 L125.50,116.00 L125.00,116.00 L124.50,116.00 L124.00,116.00 L124.00,116.50 L124.50,116.50 L125.00,116.50 L125.50,116.50 L126.00,116.00 L126.00,116.50 L125.50,117.00 L125.00,117.00 L124.50,117.00 L124.50,117.50 L125.00,117.50 L125.50,117.50 L126.00,117.00 L126.50,117.00 L126.00,117.50 L126.50,117.50 L126.00,118.00 L125.50,118.00 L125.00,118.00 L124.50,118.00 L125.00,118.50 L125.50,118.50 L126.00,118.50 L126.50,118.00 L127.00,118.00 L126.50,118.50 L127.00,118.50 L126.50,119.00 L126.00,119.00 L125.50,119.00 L125.00,119.00 L125.50,119.50 L126.00,119.50 L126.50,119.50 L127.00,119.00 L127.00,119.50 L127.50,119.50 L127.00,120.00 L126.50,120.00 L126.00,120.00 L125.50,120.00 L125.50,120.50 L126.00,120.50 L126.50,120.50 L127.00,120.50 L127.50,120.00 L127.50,120.50 L127.00,121.00 L126.50,121.00 L126.00,121.00 L125.50,121.00 L126.00,121.50 L126.50,121.50 L127.00,121.50 L127.50,121.00 L127.50,121.50 L127.00,122.00 L126.50,122.00 L126.00,122.00 L126.00,122.50 L126.50,122.50 L127.00,122.50 L127.50,122.00 L128.00,122.00 L127.50,122.50 L128.00,122.50 L127.50,123.00 L127.00,123.00 L126.50,123.00 L126.00,123.00 L126.00,123.50 L126.50,123.50 L127.00,123.50 L127.50,123.50 L128.00,123.00 L128.00,123.50 L127.50,124.00 L127.00,124.00 L126.50,124.00 L126.50,124.50 L127.00,124.50 L127.50,124.50 L128.00,124.00 L128.00,124.50 L128.50,124.50 L128.00,125.00 L127.50,125.00 L127.00,125.00 L126.50,125.00 L126.50,125.50 L127.00,125.50 L127.50,125.50 L128.00,125.50 L128.50,125.00 L128.50,125.50 L128.00,126.00 L127.50,126.00 L127.00,126.00 L126.50,126.00 L127.00,126.50 L127.50,126.50 L128.00,126.50 L128.50,126.00 L128.50,126.50 L129.00,126.50 L128.50,127.00 L128.00,127.00 L127.50,127.00 L127.00,127.00 L127.00,127.50 L127.50,127.50 L128.00,127.50 L128.50,127.50 L129.00,127.00 L129.00,127.50 L128.50,128.00 L128.00,128.00 L127.50,128.00 L127.00,128.00 L127.50,128.50 L128.00,128.50 L128.50,128.50 L129.00,128.00 L129.00,128.50 L128.50,129.00 L128.00,129.00 L127.50,129.00 L127.50,129.50 L128.00,129.50 L128.50,129.50 L129.00,129.00 L129.50,129.00 L129.00,129.50 L129.50,129.50 L129.00,130.00 L128.50,130.00 L128.00,130.00 L127.50,130.00 L127.50,130.50 L128.00,130.50 L128.50,130.50 L129.00,130.50 L129.50,130.00 L129.50,130.50 L129.00,131.00 L128.50,131.00 L128.00,131.00 L128.00,131.50 L128.50,131.50 L129.00,131.50 L129.50,131.00 L129.50,131.50 L130.00,131.50 L129.50,132.00 L129.00,132.00 L128.50,132.00 L128.00,132.00 L128.00,132.50 L128.50,132.50 L129.00,132.50 L129.50,132.50 L130.00,132.00 L130.00,132.50 L129.50,133.00 L129.00,133.00 L128.50,133.00 L128.00,133.00 L128.50,133.50 L129.00,133.50 L129.50,133.50 L130.00,133.00 L130.00,133.50 L129.50,134.00 L129.00,134.00 L128.50,134.00 L128.50,134.50 L129.00,134.50 L129.50,134.50 L130.00,134.00 L130.50,134.00 L130.00,134.50 L130.50,134.50 L130.00,135.00 L129.50,135.00 L129.00,135.00 L128.50,135.00 L129.00,135.50 L129.50,135.50 L130.00,135.50 L130.50,135.00 L130.50,135.50 L130.00,136.00 L129.50,136.00 L129.00,136.00 L129.00,136.50 L129.50,136.50 L130.00,136.50 L130.50,136.00 L131.00,136.00 L130.50,136.50 L131.00,136.50 L130.50,137.00 L130.00,137.00 L129.50,137.00 L129.00,137.00 L129.50,137.50 L130.00,137.50 L130.50,137.50 L131.00,137.00 L131.00,137.50 L131.50,137.50 L131.00,138.00 L130.50,138.00 L130.00,138.00 L129.50,138.00 L130.00,138.50 L130.50,138.50 L131.00,138.50 L131.50,138.00 L131.50,138.50 L131.00,139.00 L130.50,139.00 L130.00,139.00 L130.00,139.50 L130.50,139.50 L131.00,139.50 L131.50,139.00 L132.00,139.00 L131.50,139.50 L132.00,139.50 L131.50,140.00 L131.00,140.00 L130.50,140.00 L130.00,140.00 L130.50,140.50 L131.00,140.50 L131.50,140.50 L132.00,140.00 L132.00,140.50 L131.50,141.00 L131.00,141.00 L130.50,141.00 L130.50,141.50 L131.00,141.50 L131.50,141.50 L132.00,141.00 L132.50,141.00 L132.00,141.50 L132.50,141.50 L132.00,142.00 L131.50,142.00 L131.00,142.00 L130.50,142.00 L131.00,142.50 L131.50,142.50 L132.00,142.50 L132.50,142.00 L132.50,142.50 L132.00,143.00 L131.50,143.00 L131.00,143.00 L131.00,143.50 L131.50,143.50 L132.00,143.50 L132.50,143.00 L132.50,143.50 L132.00,144.00 L131.50,144.00 L131.00,144.00 L131.00,144.50 L131.50,144.50 L132.00,144.50 L132.50,144.00 L133.00,144.00 L132.50,144.50 L133.00,144.50 L132.50,145.00 L132.00,145.00 L131.50,145.00 L131.50,145.50 L132.00,145.50 L132.50,145.50 L133.00,145.00 L133.00,145.50 L132.50,146.00 L132.00,146.00 L131.50,146.00 L131.50,146.50 L132.00,146.50 L132.50,146.50 L133.00,146.00 L133.50,146.00 L133.00,146.50 L133.50,146.50 L133.00,147.00 L132.50,147.00 L132.00,147.00 L132.00,147.50 L132.50,147.50 L133.00,147.50 L133.50,147.00 L134.00,147.00 L134.50,146.50 L135.00,146.00 L135.00,145.50 L135.50,145.00 L135.50,144.50 L136.00,144.00 L136.00,143.50 L136.50,143.00 L136.50,142.50 L136.50,142.00 L136.50,141.50 L137.00,141.00 L137.50,140.50 L137.50,140.00 L138.00,139.50 L138.00,139.00 L138.50,138.50 L138.50,138.00 L139.00,137.50 L139.00,137.00 L139.50,136.50 L139.50,136.00 L140.00,135.50 L140.00,135.00 L140.00,134.50 L140.00,134.00 L140.00,133.50 L140.50,133.00 L140.50,132.50 L140.50,132.00 L141.00,131.50 L141.00,131.00 L141.00,130.50 L141.50,130.00 L141.50,129.50 L141.50,129.00 L141.50,128.50 L142.00,128.00 L142.00,127.50 L142.00,127.00 L142.00,126.50 L142.00,126.00 L142.00,125.50 L142.00,125.00 L142.00,124.50 L142.50,124.00 L142.50,123.50 L142.50,123.00 L142.50,122.50 L142.50,122.00 L143.00,121.50 L143.00,121.00 L143.00,120.50 L143.00,120.00 L142.50,119.50 L142.50,119.00 L142.50,118.50 L142.50,118.00 L142.50,117.50 L142.50,117.00 L142.50,116.50 L142.50,116.00 L142.50,115.50 L142.50,115.00 L142.50,114.50 L142.50,114.00 L142.50,113.50 L142.50,113.00 L142.50,112.50 L142.00,112.00 L142.00,111.50 L142.00,111.00 L142.00,110.50 L142.00,110.00 L142.00,109.50 L142.00,109.00 L142.00,108.50 L142.00,108.00 L141.50,107.50 L141.50,107.00 L141.50,106.50 L141.00,106.00 L141.00,105.50 L141.00,105.00 L140.50,104.50 L140.50,104.00 L140.50,103.50 L140.50,103.00 L140.50,102.50 L140.00,102.00 L140.00,101.50 L140.00,101.00 L139.50,100.50 L139.50,100.00 L139.50,99.50 L139.00,99.00 L139.00,98.50 L138.50,98.00 L138.50,97.50 L138.50,97.00 L138.00,96.50 L138.00,96.00 L137.50,95.50 L137.50,95.00 L137.00,94.50 L136.50,94.00 L136.50,93.50 L136.00,93.00 L135.50,92.50 L135.50,92.00 L135.50,91.50 L135.00,91.00 L135.00,90.50 L134.50,90.00 L134.00,89.50 L133.50,89.00 L133.00,88.50 L132.50,88.00 L132.00,87.50 L131.50,87.00 L131.50,86.50 L131.00,86.00 L130.50,85.50 L130.00,85.00 L129.50,84.50 L129.00,84.00 L128.50,83.50 L128.00,83.00 L127.50,82.50 L127.00,82.50 L126.50,82.50" stroke-width="2.100"/>
<path d="M132.50,81.00 L133.00,81.00 L132.50,81.50 L132.00,81.50 L131.50,81.50 L131.00,82.00 L131.50,82.00 L132.00,82.00 L132.50,82.00 L133.00,81.50 L133.50,81.50 L133.00,82.00 L133.50,82.00 L134.00,82.00 L134.50,82.00 L134.00,82.50 L133.50,82.50 L133.00,82.50 L132.50,82.50 L132.00,82.50 L132.50,83.00 L133.00,83.00 L133.50,83.00 L134.00,83.00 L134.50,82.50 L135.00,82.50 L135.50,82.50 L135.00,83.00 L134.50,83.00 L134.00,83.50 L133.50,83.50 L133.00,83.50 L133.50,84.00 L134.00,84.00 L134.50,83.50 L135.00,83.50 L135.50,83.00 L136.00,83.00 L136.50,83.00 L136.00,83.50 L135.50,83.50 L135.00,84.00 L134.50,84.00 L134.50,84.50 L135.00,84.50 L135.50,84.00 L136.00,84.00 L136.50,83.50 L137.00,83.50 L136.50,84.00 L137.00,84.00 L137.50,84.00 L137.00,84.50 L136.50,84.50 L136.00,84.50 L135.50,84.50 L135.50,85.00 L136.00,85.00 L136.50,85.00 L137.00,85.00 L137.50,84.50 L138.00,84.50 L137.50,85.00 L138.00,85.00 L138.50,85.00 L138.00,85.50 L137.50,85.50 L137.00,85.50 L136.50,85.50 L137.00,86.00 L137.50,86.00 L138.00,86.00 L138.50,85.50 L139.00,85.50 L138.50,86.00 L139.00,86.00 L139.50,86.00 L139.00,86.50 L138.50,86.50 L138.00,86.50 L137.50,86.50 L138.00,87.00 L138.50,87.00 L139.00,87.00 L139.50,86.50 L140.00,86.50 L140.50,86.50 L140.00,87.00 L139.50,87.00 L139.00,87.50 L138.50,87.50 L139.00,88.00 L139.50,87.50 L140.00,87.50 L140.50,87.00 L141.00,87.00 L140.50,87.50 L141.00,87.50 L141.50,87.50 L142.00,87.50 L141.50,88.00 L141.00,88.00 L140.50,88.00 L140.00,88.00 L139.50,88.00 L139.50,88.50 L140.00,88.50 L140.50,88.50 L141.00,88.50 L141.50,88.50 L142.00,88.00 L142.00,88.50 L142.50,88.50 L142.00,89.00 L141.50,89.00 L141.00,89.00 L140.50,89.00 L141.00,89.50 L141.50,89.50 L142.00,89.50 L142.50,89.00 L143.00,89.00 L142.50,89.50 L143.00,89.50 L143.50,89.50 L143.00,90.00 L142.50,90.00 L142.00,90.00 L141.50,90.00 L141.00,90.00 L141.50,90.50 L142.00,90.50 L142.50,90.50 L143.00,90.50 L143.50,90.00 L143.50,90.50 L144.00,90.50 L143.50,91.00 L143.00,91.00 L142.50,91.00 L142.00,91.00 L142.50,91.50 L143.00,91.50 L143.50,91.50 L144.00,91.00 L144.50,91.00 L144.00,91.50 L144.50,91.50 L145.00,91.50 L144.50,92.00 L144.00,92.00 L143.50,92.00 L143.00,92.00 L142.50,92.00 L143.00,92.50 L143.50,92.50 L144.00,92.50 L144.50,92.50 L145.00,92.00 L145.50,92.00 L145.00,92.50 L145.50,92.50 L146.00,92.50 L145.50,93.00 L145.00,93.00 L144.50,93.00 L144.00,93.00 L143.50,93.00 L144.00,93.50 L144.50,93.50 L145.00,93.50 L145.50,93.50 L146.00,93.00 L146.00,93.50 L146.50,93.50 L146.00,94.00 L145.50,94.00 L145.00,94.00 L144.50,94.00 L145.00,94.50 L145.50,94.50 L146.00,94.50 L146.50,94.00 L146.50,94.50 L147.00,94.50 L146.50,95.00 L146.00,95.00 L145.50,95.00 L145.00,95.00 L145.00,95.50 L145.50,95.50 L146.00,95.50 L146.50,95.50 L147.00,95.00 L147.00,95.50 L147.50,95.50 L147.00,96.00 L146.50,96.00 L146.00,96.00 L145.50,96.00 L145.50,96.50 L146.00,96.50 L146.50,96.50 L147.00,96.50 L147.50,96.00 L147.50,96.50 L148.00,96.50 L147.50,97.00 L147.00,97.00 L146.50,97.00 L146.00,97.00 L146.00,97.50 L146.50,97.50 L147.00,97.50 L147.50,97.50 L148.00,97.00 L148.00,97.50 L148.50,97.50 L148.00,98.00 L147.50,98.00 L147.00,98.00 L146.50,98.00 L147.00,98.50 L147.50,98.50 L148.00,98.50 L148.50,98.00 L149.00,98.00 L148.50,98.50 L149.00,98.50 L148.50,99.00 L148.00,99.00 L147.50,99.00 L147.00,99.00 L147.50,99.50 L148.00,99.50 L148.50,99.50 L149.00,99.00 L149.50,99.00 L149.00,99.50 L149.50,99.50 L149.00,100.00 L148.50,100.00 L148.00,100.00 L147.50,100.00 L148.00,100.50 L148.50,100.50 L149.00,100.50 L149.50,100.00 L149.50,100.50 L150.00,100.50 L149.50,101.00 L149.00,101.00 L148.50,101.00 L148.00,101.00 L148.00,101.50 L148.50,101.50 L149.00,101.50 L149.50,101.50 L150.00,101.00 L150.00,101.50 L149.50,102.00 L149.00,102.00 L148.50,102.00 L148.50,102.50 L149.00,102.50 L149.50,102.50 L150.00,102.00 L150.50,102.00 L150.00,102.50 L150.50,102.50 L150.00,103.00 L149.50,103.00 L149.00,103.00 L148.50,103.00 L149.00,103.50 L149.50,103.50 L150.00,103.50 L150.50,103.00 L150.50,103.50 L151.00,103.50 L150.50,104.00 L150.00,104.00 L149.50,104.00 L149.00,104.00 L149.50,104.50 L150.00,104.50 L150.50,104.50 L151.00,104.00 L151.00,104.50 L151.50,104.50 L151.00,105.00 L150.50,105.00 L150.00,105.00 L149.50,105.00 L149.50,105.50 L150.00,105.50 L150.50,105.50 L151.00,105.50 L151.50,105.00 L151.50,105.50 L151.00,106.00 L150.50,106.00 L150.00,106.00 L150.00,106.50 L150.50,106.50 L151.00,106.50 L151.50,106.00 L151.50,106.50 L151.00,107.00 L150.50,107.00 L150.00,107.00 L150.00,107.50 L150.50,107.50 L151.00,107.50 L151.50,107.00 L152.00,107.00 L151.50,107.50 L152.00,107.50 L151.50,108.00 L151.00,108.00 L150.50,108.00 L150.00,108.00 L150.00,108.50 L150.50,108.50 L151.00,108.50 L151.50,108.50 L152.00,108.00 L152.00,108.50 L151.50,109.00 L151.00,109.00 L150.50,109.00 L150.50,109.50 L151.00,109.50 L151.50,109.50 L152.00,109.00 L152.00,109.50 L152.50,109.50 L152.00,110.00 L151.50,110.00 L151.00,110.00 L150.50,110.00 L150.50,110.50 L151.00,110.50 L151.50,110.50 L152.00,110.50 L152.50,110.00 L152.50,110.50 L152.00,111.00 L151.50,111.00 L151.00,111.00 L150.50,111.00 L151.00,111.50 L151.50,111.50 L152.00,111.50 L152.50,111.00 L152.50,111.50 L152.00,112.00 L151.50,112.00 L151.00,112.00 L151.00,112.50 L151.50,112.50 L152.00,112.50 L152.50,112.00 L152.50,112.50 L152.00,113.00 L151.50,113.00 L151.00,113.00 L151.00,113.50 L151.50,113.50 L152.00,113.50 L152.50,113.00 L152.50,113.50 L152.00,114.00 L151.50,114.00 L151.00,114.00 L151.00,114.50 L151.50,114.50 L152.00,114.50 L152.50,114.00 L152.50,114.50 L152.00,115.00 L151.50,115.00 L151.00,115.00 L151.00,115.50 L151.50,115.50 L152.00,115.50 L152.50,115.00 L152.50,115.50 L152.00,116.00 L151.50,116.00 L151.00,116.00 L151.00,116.50 L151.50,116.50 L152.00,116.50 L152.50,116.00 L152.50,116.50 L152.00,117.00 L151.50,117.00 L151.00,117.00 L151.00,117.50 L151.50,117.50 L152.00,117.50 L152.50,117.00 L152.50,117.50 L152.00,118.00 L151.50,118.00 L151.00,118.00 L150.50,118.00 L150.50,118.50 L151.00,118.50 L151.50,118.50 L152.00,118.50 L152.50,118.00 L152.50,118.50 L152.00,119.00 L151.50,119.00 L151.00,119.00 L150.50,119.00 L150.50,119.50 L151.00,119.50 L151.50,119.50 L152.00,119.50 L152.50,119.00 L152.50,119.50 L152.00,120.00 L151.50,120.00 L151.00,120.00 L150.50,120.00 L150.50,120.50 L151.00,120.50 L151.50,120.50 L152.00,120.50 L151.50,121.00 L151.00,121.00 L150.50,121.00 L150.50,121.50 L151.00,121.50 L151.50,121.50 L152.00,121.00 L152.00,121.50 L151.50,122.00 L151.00,122.00 L150.50,122.00 L150.50,122.50 L151.00,122.50 L151.50,122.50 L152.00,122.00 L152.00,122.50 L151.50,123.00 L151.00,123.00 L150.50,123.00 L150.50,123.50 L151.00,123.50 L151.50,123.50 L152.00,123.00 L152.00,123.50 L151.50,124.00 L151.00,124.00 L150.50,124.00 L150.00,124.50 L150.50,124.50 L151.00,124.50 L151.50,124.50 L152.00,124.00 L152.00,124.50 L151.50,125.00 L151.00,125.00 L150.50,125.00 L150.00,125.00 L149.50,125.50 L150.00,125.50 L150.50,125.50 L151.00,125.50 L151.50,125.50 L152.00,125.00 L152.00,125.50 L151.50,126.00 L151.00,126.00 L150.50,126.00 L150.00,126.00 L149.50,126.00 L149.50,126.50 L150.00,126.50 L150.50,126.50 L151.00,126.50 L151.50,126.50 L151.00,127.00 L150.50,127.00 L150.00,127.00 L149.50,127.00 L149.50,127.50 L150.00,127.50 L150.50,127.50 L151.00,127.50 L150.50,128.00 L150.00,128.00 L149.50,128.00 L149.00,128.00 L149.00,128.50 L149.50,128.50 L150.00,128.50 L150.50,128.50 L151.00,128.00 L151.00,128.50 L150.50,129.00 L150.00,129.00 L149.50,129.00 L149.00,129.00 L149.00,129.50 L149.50,129.50 L150.00,129.50 L150.50,129.50 L151.00,129.00 L151.00,129.50 L150.50,130.00 L150.00,130.00 L149.50,130.00 L149.00,130.00 L148.50,130.50 L149.00,130.50 L149.50,130.50 L150.00,130.50 L150.50,130.50 L150.00,131.00 L149.50,131.00 L149.00,131.00 L148.50,131.00 L148.50,131.50 L149.00,131.50 L149.50,131.50 L150.00,131.50 L150.50,131.00 L150.50,131.50 L150.00,132.00 L149.50,132.00 L149.00,132.00 L148.50,132.00 L148.00,132.00 L147.50,132.50 L148.00,132.50 L148.50,132.50 L149.00,132.50 L149.50,132.50 L150.00,132.50 L149.50,133.00 L149.00,133.00 L148.50,133.00 L148.00,133.00 L147.50,133.00 L147.50,133.50 L148.00,133.50 L148.50,133.50 L149.00,133.50 L149.50,133.50 L150.00,133.00" stroke-width="2.100"/>
<path d="M129.50,83.00 L130.00,83.00 L129.50,83.50 L129.00,83.50 L128.50,84.00 L129.00,84.50 L129.50,84.00 L130.00,83.50 L130.50,83.50 L131.00,83.50 L130.50,84.00 L130.00,84.00 L130.00,84.50 L130.50,84.50 L131.00,84.00 L131.50,84.00 L131.00,84.50 L131.50,84.50 L132.00,84.50 L131.50,85.00 L131.00,85.00 L130.50,85.00 L130.00,85.50 L129.50,85.00" stroke-width="0.720"/>
<path d="M132.00,85.00 L132.50,85.00 L132.00,85.50 L131.50,85.50 L131.00,85.50 L131.50,86.00 L132.00,86.00 L132.50,85.50 L133.00,85.50 L132.50,86.00 L133.00,86.00 L133.50,86.00 L133.00,86.50 L132.50,86.50 L132.00,86.50 L132.00,87.00 L132.50,87.00 L133.00,87.00 L133.50,86.50 L134.00,86.50 L133.50,87.00 L134.00,87.00 L133.50,87.50 L133.00,87.50 L132.50,87.50 L133.00,88.00 L133.50,88.00 L134.00,87.50 L134.50,87.50 L134.00,88.00 L134.50,88.00 L135.00,88.00 L134.50,88.50 L134.00,88.50 L133.50,88.50 L134.00,89.00 L134.50,89.00 L135.00,88.50 L135.50,88.50 L135.00,89.00 L135.50,89.00 L136.00,89.00 L135.50,89.50 L135.00,89.50 L134.50,89.50 L135.00,90.00 L135.50,90.00 L136.00,89.50 L136.50,89.50 L136.00,90.00 L136.50,90.00 L137.00,90.00 L136.50,90.50 L136.00,90.50 L135.50,90.50 L135.50,91.00 L136.00,91.00 L136.50,91.00 L137.00,90.50 L137.00,91.00 L136.50,91.50 L136.00,91.50 L136.00,92.00 L136.50,92.00 L137.00,91.50 L137.50,91.50 L137.00,92.00 L137.50,92.00 L137.00,92.50 L136.50,92.50 L136.00,92.50 L136.50,93.00 L137.00,93.00 L137.50,92.50 L138.00,92.50 L137.50,93.00 L138.00,93.00 L138.50,93.00 L138.00,93.50 L137.50,93.50 L137.00,93.50 L137.00,94.00 L137.50,94.00 L138.00,94.00 L138.50,93.50 L138.50,94.00 L139.00,94.00 L138.50,94.50 L138.00,94.50 L137.50,94.50 L138.00,95.00 L138.50,95.00 L139.00,94.50 L139.50,94.50 L139.00,95.00 L139.50,95.00 L139.00,95.50 L138.50,95.50 L138.00,95.50 L138.50,96.00 L139.00,96.00 L139.50,95.50 L140.00,95.50 L139.50,96.00 L140.00,96.00 L139.50,96.50 L139.00,96.50 L138.50,96.50 L139.00,97.00 L139.50,97.00 L140.00,96.50 L140.00,97.00 L140.50,97.00 L140.00,97.50 L139.50,97.50 L139.00,97.50 L139.00,98.00 L139.50,98.00 L140.00,98.00 L140.50,97.50 L140.50,98.00 L140.00,98.50 L139.50,98.50 L139.50,99.00 L140.00,99.00 L140.50,98.50 L141.00,98.50 L140.50,99.00 L141.00,99.00 L140.50,99.50 L140.00,99.50 L140.00,100.00 L140.50,100.00 L141.00,99.50 L141.50,99.50 L141.00,100.00 L141.50,100.00 L141.00,100.50 L140.50,100.50 L140.00,100.50 L140.50,101.00 L141.00,101.00 L141.50,100.50 L141.50,101.00 L142.00,101.00 L141.50,101.50 L141.00,101.50 L140.50,101.50 L140.50,102.00 L141.00,102.00 L141.50,102.00 L142.00,101.50 L142.00,102.00 L141.50,102.50 L141.00,102.50 L141.00,103.00 L141.50,103.00 L142.00,102.50 L142.00,103.00 L141.50,103.50 L141.00,103.50 L141.00,104.00 L141.50,104.00 L142.00,103.50 L142.50,103.50 L142.00,104.00 L142.50,104.00 L142.00,104.50 L141.50,104.50 L141.00,104.50 L141.50,105.00 L142.00,105.00 L142.50,104.50 L142.50,105.00 L143.00,105.00 L142.50,105.50 L142.00,105.50 L141.50,105.50 L141.50,106.00 L142.00,106.00 L142.50,106.00 L143.00,105.50 L143.00,106.00 L142.50,106.50 L142.00,106.50 L142.00,107.00 L142.50,107.00 L143.00,106.50 L143.50,106.50 L143.00,107.00 L143.50,107.00 L143.00,107.50 L142.50,107.50 L142.00,107.50 L142.50,108.00 L143.00,108.00 L143.50,107.50 L143.50,108.00 L143.00,108.50 L142.50,108.50 L142.50,109.00 L143.00,109.00 L143.50,108.50 L143.50,109.00 L143.00,109.50 L142.50,109.50 L142.50,110.00 L143.00,110.00 L143.50,109.50 L143.50,110.00 L143.00,110.50 L142.50,110.50 L142.50,111.00 L143.00,111.00 L143.50,110.50 L144.00,110.50 L143.50,111.00 L144.00,111.00 L143.50,111.50 L143.00,111.50 L142.50,111.50 L142.50,112.00 L143.00,112.00 L143.50,112.00 L144.00,111.50 L144.00,112.00 L143.50,112.50 L143.00,112.50 L143.00,113.00 L143.50,113.00 L144.00,112.50 L144.00,113.00 L143.50,113.50 L143.00,113.50 L143.00,114.00 L143.50,114.00 L144.00,113.50 L144.00,114.00 L143.50,114.50 L143.00,114.50 L143.00,115.00 L143.50,115.00 L144.00,114.50 L144.00,115.00 L143.50,115.50 L143.00,115.50 L143.00,116.00 L143.50,116.00 L144.00,115.50 L144.00,116.00 L143.50,116.50 L143.00,116.50 L143.00,117.00 L143.50,117.00 L144.00,116.50 L144.00,117.00 L143.50,117.50 L143.00,117.50 L143.00,118.00 L143.50,118.00 L144.00,117.50 L144.00,118.00 L144.50,118.00 L144.00,118.50 L143.50,118.50 L143.00,118.50 L143.00,119.00 L143.50,119.00 L144.00,119.00 L144.50,118.50 L144.50,119.00 L144.00,119.50 L143.50,119.50 L143.00,119.50 L143.50,120.00 L144.00,120.00 L144.50,119.50 L144.50,120.00 L144.00,120.50 L143.50,120.50 L143.50,121.00 L144.00,121.00 L144.50,120.50 L144.50,121.00 L144.00,121.50 L143.50,121.50 L143.00,122.00 L143.50,122.00 L144.00,122.00 L144.50,121.50 L144.50,122.00 L144.00,122.50 L143.50,122.50 L143.00,122.50 L143.00,123.00 L143.50,123.00 L144.00,123.00 L144.50,122.50 L144.50,123.00 L144.00,123.50 L143.50,123.50 L143.00,123.50 L143.00,124.00 L143.50,124.00 L144.00,124.00 L144.50,123.50" stroke-width="2.100"/>
<path d="M80.00,86.50 L80.50,86.50 L81.00,86.50 L81.50,86.50 L82.00,86.50 L81.50,87.00 L81.00,87.00 L80.50,87.00 L80.00,87.00 L80.00,87.50 L80.50,87.50 L81.00,87.50 L81.50,87.50 L82.00,87.00 L82.00,87.50 L81.50,88.00 L81.00,88.00 L80.50,88.00 L80.00,88.00 L79.50,88.50 L80.00,88.50 L80.50,88.50 L81.00,88.50 L81.50,88.50 L82.00,88.00" stroke-width="0.725"/>
<path d="M79.50,89.00 L80.00,89.00 L80.50,89.00 L81.00,89.00 L81.50,89.00 L81.00,89.50 L80.50,89.50 L80.00,89.50 L79.50,89.50 L79.50,90.00 L80.00,90.00 L80.50,90.00 L81.00,90.00 L81.50,89.50 L81.50,90.00 L81.00,90.50 L80.50,90.50 L80.00,90.50 L79.50,90.50 L79.00,91.00 L79.50,91.00 L80.00,91.00 L80.50,91.00 L81.00,91.00 L80.50,91.50 L80.00,91.50 L79.50,91.50 L79.00,91.50 L79.00,92.00 L79.50,92.00 L80.00,92.00 L80.50,92.00 L81.00,91.50 L81.00,92.00 L80.50,92.50 L80.00,92.50 L79.50,92.50 L79.00,92.50 L79.00,93.00 L79.50,93.00 L80.00,93.00 L80.50,93.00 L81.00,92.50" stroke-width="0.815"/>
<path d="M78.50,93.50 L79.00,93.50 L79.50,93.50 L80.00,93.50 L80.50,93.50 L80.00,94.00 L79.50,94.00 L79.00,94.00 L78.50,94.00 L78.50,94.50 L79.00,94.50 L79.50,94.50 L80.00,94.50 L80.50,94.00 L80.50,94.50 L80.00,95.00 L79.50,95.00 L79.00,95.00 L78.50,95.00 L78.50,95.50 L79.00,95.50 L79.50,95.50 L80.00,95.50 L80.50,95.00" stroke-width="0.720"/>
<path d="M78.00,96.00 L78.50,96.00 L79.00,96.00 L79.50,96.00 L80.00,96.00 L79.50,96.50 L79.00,96.50 L78.50,96.50 L78.00,96.50 L78.00,97.00 L78.50,97.00 L79.00,97.00 L79.50,97.00 L80.00,96.50 L80.00,97.00 L79.50,97.50 L79.00,97.50 L78.50,97.50 L78.00,97.50 L78.00,98.00 L78.50,98.00 L79.00,98.00 L79.50,98.00 L80.00,97.50" stroke-width="0.720"/>
<path d="M77.50,98.50 L78.00,98.50 L78.50,98.50 L79.00,98.50 L79.50,98.50 L79.00,99.00 L78.50,99.00 L78.00,99.00 L77.50,99.00 L77.50,99.50 L78.00,99.50 L78.50,99.50 L79.00,99.50 L79.50,99.00 L79.50,99.50 L79.00,100.00 L78.50,100.00 L78.00,100.00 L77.50,100.00 L77.50,100.50 L78.00,100.50 L78.50,100.50 L79.00,100.50 L79.50,100.00 L79.50,100.50 L79.00,101.00 L78.50,101.00 L78.00,101.00 L77.50,101.00 L77.50,101.50 L78.00,101.50 L78.50,101.50 L79.00,101.50 L79.50,101.00 L79.50,101.50 L79.00,102.00 L78.50,102.00 L78.00,102.00 L77.50,102.00 L77.50,102.50 L78.00,102.50 L78.50,102.50 L79.00,102.50 L79.50,102.00" stroke-width="0.820"/>
<path d="M77.00,103.00 L77.50,103.00 L78.00,103.00 L78.50,103.00 L79.00,103.00 L78.50,103.50 L78.00,103.50 L77.50,103.50 L77.00,103.50 L77.00,104.00 L77.50,104.00 L78.00,104.00 L78.50,104.00 L79.00,103.50 L79.00,104.00 L78.50,104.50 L78.00,104.50 L77.50,104.50 L77.00,104.50 L77.00,105.00 L77.50,105.00 L78.00,105.00 L78.50,105.00 L79.00,104.50" stroke-width="0.720"/>
<path d="M76.50,105.50 L77.00,105.50 L77.50,105.50 L78.00,105.50 L78.50,105.50 L78.00,106.00 L77.50,106.00 L77.00,106.00 L76.50,106.00 L76.50,106.50 L77.00,106.50 L77.50,106.50 L78.00,106.50 L78.50,106.00 L78.50,106.50 L78.00,107.00 L77.50,107.00 L77.00,107.00 L76.50,107.00 L76.00,107.50 L76.50,107.50 L77.00,107.50 L77.50,107.50 L78.00,107.50 L78.50,107.00" stroke-width="0.725"/>
<path d="M76.00,108.00 L76.50,108.00 L77.00,108.00 L77.50,108.00 L78.00,108.00 L77.50,108.50 L77.00,108.50 L76.50,108.50 L76.00,108.50 L76.00,109.00 L76.50,109.00 L77.00,109.00 L77.50,109.00 L78.00,108.50 L78.00,109.00 L77.50,109.50 L77.00,109.50 L76.50,109.50 L76.00,109.50 L75.50,110.00 L76.00,110.00 L76.50,110.00 L77.00,110.00 L77.50,110.00 L77.00,110.50 L76.50,110.50 L76.00,110.50 L75.50,110.50 L75.50,111.00 L76.00,111.00 L76.50,111.00 L77.00,111.00 L77.50,110.50 L77.50,111.00 L77.00,111.50 L76.50,111.50 L76.00,111.50 L75.50,111.50 L75.50,112.00 L76.00,112.00 L76.50,112.00 L77.00,112.00 L77.50,111.50" stroke-width="0.815"/>
<path d="M75.00,112.50 L75.50,112.50 L76.00,112.50 L76.50,112.50 L77.00,112.50 L76.50,113.00 L76.00,113.00 L75.50,113.00 L75.00,113.00 L75.00,113.50 L75.50,113.50 L76.00,113.50 L76.50,113.50 L77.00,113.00 L77.00,113.50 L76.50,114.00 L76.00,114.00 L75.50,114.00 L75.00,114.00 L75.00,114.50 L75.50,114.50 L76.00,114.50 L76.50,114.50 L77.00,114.00" stroke-width="0.720"/>
<path d="M74.50,115.00 L75.00,115.00 L75.50,115.00 L76.00,115.00 L76.50,115.00 L76.00,115.50 L75.50,115.50 L75.00,115.50 L74.50,115.50 L74.50,116.00 L75.00,116.00 L75.50,116.00 L76.00,116.00 L76.50,115.50 L76.50,116.00 L76.00,116.50 L75.50,116.50 L75.00,116.50 L74.50,116.50 L74.50,117.00 L75.00,117.00 L75.50,117.00 L76.00,117.00 L76.50,116.50" stroke-width="0.720"/>
<path d="M74.00,117.50 L74.50,117.50 L75.00,117.50 L75.50,117.50 L76.00,117.50 L75.50,118.00 L75.00,118.00 L74.50,118.00 L74.00,118.00 L74.00,118.50 L74.50,118.50 L75.00,118.50 L75.50,118.50 L76.00,118.00 L76.00,118.50 L75.50,119.00 L75.00,119.00 L74.50,119.00 L74.00,119.00 L74.00,119.50 L74.50,119.50 L75.00,119.50 L75.50,119.50 L76.00,119.00 L76.00,119.50 L75.50,120.00 L75.00,120.00 L74.50,120.00 L74.00,120.00 L74.00,120.50 L74.50,120.50 L75.00,120.50 L75.50,120.50 L76.00,120.00 L76.00,120.50 L75.50,121.00 L75.00,121.00 L74.50,121.00 L74.00,121.00 L74.00,121.50 L74.50,121.50 L75.00,121.50 L75.50,121.50 L76.00,121.00" stroke-width="0.820"/>
<path d="M73.50,122.00 L74.00,122.00 L74.50,122.00 L75.00,122.00 L75.50,122.00 L75.00,122.50 L74.50,122.50 L74.00,122.50 L73.50,122.50 L73.50,123.00 L74.00,123.00 L74.50,123.00 L75.00,123.00 L75.50,122.50 L75.50,123.00 L75.00,123.50 L74.50,123.50 L74.00,123.50 L73.50,123.50 L73.50,124.00 L74.00,124.00 L74.50,124.00 L75.00,124.00 L75.50,123.50" stroke-width="0.720"/>
<path d="M73.00,124.50 L73.50,124.50 L74.00,124.50 L74.50,124.50 L75.00,124.50 L74.50,125.00 L74.00,125.00 L73.50,125.00 L73.00,125.00 L73.00,125.50 L73.50,125.50 L74.00,125.50 L74.50,125.50 L75.00,125.00 L75.00,125.50 L74.50,126.00 L74.00,126.00 L73.50,126.00 L73.00,126.00 L72.50,126.50 L73.00,126.50 L73.50,126.50 L74.00,126.50 L74.50,126.50 L75.00,126.00" stroke-width="0.725"/>
<path d="M142.50,124.50 L143.00,124.50 L143.50,124.50 L144.00,124.50 L143.50,125.00 L143.00,125.00 L142.50,125.00 L142.50,125.50 L143.00,125.50 L143.50,125.50 L144.00,125.00 L144.00,125.50 L143.50,126.00 L143.00,126.00 L142.50,126.00 L142.50,126.50 L143.00,126.50 L143.50,126.50 L144.00,126.00" stroke-width="0.695"/>
<path d="M72.50,127.00 L73.00,127.00 L73.50,127.00 L74.00,127.00 L74.50,127.00 L74.00,127.50 L73.50,127.50 L73.00,127.50 L72.50,127.50 L72.50,128.00 L73.00,128.00 L73.50,128.00 L74.00,128.00 L74.50,127.50 L74.50,128.00 L74.00,128.50 L73.50,128.50 L73.00,128.50 L72.50,128.50 L72.00,129.00 L72.50,129.00 L73.00,129.00 L73.50,129.00 L74.00,129.00 L73.50,129.50 L73.00,129.50 L72.50,129.50 L72.00,129.50 L72.00,130.00 L72.50,130.00 L73.00,130.00 L73.50,130.00 L74.00,129.50 L74.00,130.00 L73.50,130.50 L73.00,130.50 L72.50,130.50 L72.00,130.50 L72.00,131.00 L72.50,131.00 L73.00,131.00 L73.50,131.00 L74.00,130.50" stroke-width="0.815"/>
<path d="M142.50,127.00 L143.00,127.00 L143.50,127.00 L143.00,127.50 L142.50,127.50 L142.50,128.00 L143.00,128.00 L143.50,127.50 L143.50,128.00 L143.00,128.50 L142.50,128.50 L142.00,128.50 L142.00,129.00 L142.50,129.00 L143.00,129.00 L143.50,128.50 L143.50,129.00 L143.00,129.50 L142.50,129.50 L142.00,129.50 L142.00,130.00 L142.50,130.00 L143.00,130.00 L143.50,129.50 L143.50,130.00 L143.00,130.50 L142.50,130.50 L142.00,130.50 L141.50,130.50 L141.50,131.00 L142.00,131.00 L142.50,131.00 L143.00,131.00 L142.50,131.50 L142.00,131.50 L141.50,131.50 L141.00,132.00 L141.50,132.00 L142.00,132.00 L142.50,132.00 L143.00,131.50" stroke-width="0.805"/>
<path d="M71.50,131.50 L72.00,131.50 L72.50,131.50 L73.00,131.50 L73.50,131.50 L73.00,132.00 L72.50,132.00 L72.00,132.00 L71.50,132.00 L71.50,132.50 L72.00,132.50 L72.50,132.50 L73.00,132.50 L73.50,132.00 L73.50,132.50 L73.00,133.00 L72.50,133.00 L72.00,133.00 L71.50,133.00 L71.50,133.50 L72.00,133.50 L72.50,133.50 L73.00,133.50 L73.50,133.00" stroke-width="0.720"/>
<path d="M71.00,134.00 L71.50,134.00 L72.00,134.00 L72.50,134.00 L73.00,134.00 L72.50,134.50 L72.00,134.50 L71.50,134.50 L71.00,134.50 L71.00,135.00 L71.50,135.00 L72.00,135.00 L72.50,135.00 L73.00,134.50 L73.00,135.00 L72.50,135.50 L72.00,135.50 L71.50,135.50 L71.00,135.50 L71.00,136.00 L71.50,136.00 L72.00,136.00 L72.50,136.00 L72.00,136.50 L71.50,136.50 L71.00,136.50 L70.50,136.50 L70.50,137.00 L71.00,137.00 L71.50,137.00 L72.00,137.00 L72.50,136.50 L72.50,137.00 L72.00,137.50 L71.50,137.50 L71.00,137.50 L70.50,137.50 L70.50,138.00 L71.00,138.00 L71.50,138.00 L72.00,138.00 L72.50,137.50 L72.50,138.00 L72.00,138.50 L71.50,138.50 L71.00,138.50 L70.50,138.50 L70.50,139.00 L71.00,139.00 L71.50,139.00 L72.00,139.00 L72.50,138.50 L72.50,139.00 L72.00,139.50 L71.50,139.50 L71.00,139.50 L70.50,139.50 L70.50,140.00 L71.00,140.00 L71.50,140.00 L72.00,140.00 L72.50,139.50" stroke-width="0.910"/>
<path d="M147.00,134.00 L147.50,134.00 L148.00,134.00 L148.50,134.00 L149.00,134.00 L148.50,134.50 L148.00,134.50 L147.50,134.50 L147.00,134.50 L147.00,135.00 L147.50,135.00 L148.00,135.00 L148.50,135.00 L149.00,134.50 L149.00,135.00 L148.50,135.50 L148.00,135.50 L147.50,135.50 L147.00,135.50 L146.50,135.50 L146.50,136.00 L147.00,136.00 L147.50,136.00 L148.00,136.00 L148.50,136.00 L148.00,136.50 L147.50,136.50 L147.00,136.50 L146.50,136.50 L146.00,137.00 L146.50,137.00 L147.00,137.00 L147.50,137.00 L148.00,137.00 L148.50,136.50" stroke-width="0.775"/>
<path d="M140.50,135.50 L141.00,135.50 L141.50,135.50 L141.00,136.00 L140.50,136.00 L140.00,136.00 L140.00,136.50 L140.50,136.50 L141.00,136.50 L141.50,136.00 L141.50,136.50 L141.00,137.00 L140.50,137.00 L140.00,137.00 L139.50,137.00 L139.50,137.50 L140.00,137.50 L140.50,137.50 L141.00,137.50 L141.50,137.00" stroke-width="0.700"/>
<path d="M146.00,137.50 L146.50,137.50 L147.00,137.50 L147.50,137.50 L148.00,137.50 L147.50,138.00 L147.00,138.00 L146.50,138.00 L146.00,138.00 L145.50,138.00 L145.50,138.50 L146.00,138.50 L146.50,138.50 L147.00,138.50 L147.50,138.50 L148.00,138.00" stroke-width="0.680"/>
<path d="M139.00,138.00 L139.50,138.00 L140.00,138.00 L140.50,138.00 L141.00,138.00 L140.50,138.50 L140.00,138.50 L139.50,138.50 L139.00,138.50 L138.50,139.00 L139.00,139.00 L139.50,139.00 L140.00,139.00 L140.50,139.00 L140.00,139.50 L139.50,139.50 L139.00,139.50 L138.50,139.50 L138.00,140.00 L138.50,140.00 L139.00,140.00 L139.50,140.00 L140.00,140.00 L139.50,140.50 L139.00,140.50 L138.50,140.50 L138.00,140.50 L137.50,141.00 L138.00,141.00 L138.50,141.00 L139.00,141.00 L138.50,141.50 L138.00,141.50 L137.50,141.50 L137.00,141.50 L137.00,142.00 L137.50,142.00 L138.00,142.00 L138.50,142.00 L139.00,141.50" stroke-width="0.800"/>
<path d="M145.00,139.00 L145.50,139.00 L146.00,139.00 L146.50,139.00 L147.00,139.00 L147.50,139.00 L147.00,139.50 L146.50,139.50 L146.00,139.50 L145.50,139.50 L145.00,139.50 L144.50,139.50 L144.50,140.00 L145.00,140.00 L145.50,140.00 L146.00,140.00 L146.50,140.00 L147.00,140.00 L146.50,140.50 L146.00,140.50 L145.50,140.50 L145.00,140.50 L144.50,140.50 L144.00,140.50 L143.50,141.00 L144.00,141.00 L144.50,141.00 L145.00,141.00 L145.50,141.00 L146.00,141.00 L145.50,141.50 L145.00,141.50 L144.50,141.50 L144.00,141.50 L143.50,141.50 L143.00,142.00 L143.50,142.00 L144.00,142.00 L144.50,142.00 L145.00,142.00 L145.50,142.00 L145.00,142.50 L144.50,142.50 L144.00,142.50 L143.50,142.50 L143.00,142.50 L142.50,143.00 L143.00,143.00 L143.50,143.00 L144.00,143.00 L144.50,143.00 L145.00,143.00 L144.50,143.50 L144.00,143.50 L143.50,143.50 L143.00,143.50 L142.50,143.50 L142.00,144.00 L142.50,144.00 L143.00,144.00 L143.50,144.00 L144.00,144.00 L144.50,144.00 L144.00,144.50 L143.50,144.50 L143.00,144.50 L142.50,144.50 L142.00,144.50 L141.50,145.00 L142.00,145.00 L142.50,145.00 L143.00,145.00 L143.50,145.00 L143.00,145.50 L142.50,145.50 L142.00,145.50 L141.50,145.50 L141.00,145.50 L141.00,146.00 L141.50,146.00 L142.00,146.00 L142.50,146.00 L143.00,146.00 L143.50,145.50" stroke-width="1.020"/>
<path d="M70.50,140.50 L71.00,140.50 L71.50,140.50 L72.00,140.50 L71.50,141.00 L71.00,141.00 L70.50,141.00 L70.00,141.00 L70.00,141.50 L70.50,141.50 L71.00,141.50 L71.50,141.50 L72.00,141.00 L72.00,141.50 L71.50,142.00 L71.00,142.00 L70.50,142.00 L70.00,142.00 L70.00,142.50 L70.50,142.50 L71.00,142.50 L71.50,142.50 L72.00,142.00" stroke-width="0.715"/>
<path d="M137.00,142.50 L137.50,142.50 L138.00,142.50 L138.50,142.50 L138.00,143.00 L137.50,143.00 L137.00,143.00 L136.50,143.50 L137.00,143.50 L137.50,143.50 L138.00,143.50 L137.50,144.00 L137.00,144.00 L136.50,144.00 L136.00,144.50 L136.50,144.50 L137.00,144.50 L137.50,144.50 L138.00,144.00 L138.00,144.50 L137.50,145.00 L137.00,145.00 L136.50,145.00 L136.00,145.00 L135.50,145.50 L136.00,145.50 L136.50,145.50 L137.00,145.50 L137.50,145.50 L137.00,146.00 L136.50,146.00 L136.00,146.00 L135.50,146.00 L135.00,146.50 L135.50,146.50 L136.00,146.50 L136.50,146.50 L136.00,147.00 L135.50,147.00 L135.00,147.00 L134.50,147.00 L134.00,147.50 L133.50,147.50 L133.00,148.00 L132.50,148.00 L132.00,148.00 L132.00,148.50 L132.50,148.50 L133.00,148.50 L133.50,148.00 L134.00,148.00 L134.50,147.50 L135.00,147.50 L135.50,147.50 L136.00,147.50 L136.50,147.00" stroke-width="0.880"/>
<path d="M70.00,143.00 L70.50,143.00 L71.00,143.00 L71.50,143.00 L71.00,143.50 L70.50,143.50 L70.00,143.50 L69.50,144.00 L70.00,144.00 L70.50,144.00 L71.00,144.00 L71.50,143.50 L71.50,144.00 L71.00,144.50 L70.50,144.50 L70.00,144.50 L69.50,144.50 L69.50,145.00 L70.00,145.00 L70.50,145.00 L71.00,145.00 L71.50,144.50" stroke-width="0.710"/>
<path d="M69.50,145.50 L70.00,145.50 L70.50,145.50 L71.00,145.50 L70.50,146.00 L70.00,146.00 L69.50,146.00 L69.00,146.00 L69.00,146.50 L69.50,146.50 L70.00,146.50 L70.50,146.50 L71.00,146.00 L71.00,146.50 L70.50,147.00 L70.00,147.00 L69.50,147.00 L69.00,147.00 L69.00,147.50 L69.50,147.50 L70.00,147.50 L70.50,147.50 L70.00,148.00 L69.50,148.00 L69.00,148.00 L68.50,148.50 L69.00,148.50 L69.50,148.50 L70.00,148.50 L70.50,148.00 L70.50,148.50 L70.00,149.00 L69.50,149.00 L69.00,149.00 L68.50,149.00 L68.50,149.50 L69.00,149.50 L69.50,149.50 L70.00,149.50 L70.50,149.00" stroke-width="0.800"/>
<path d="M140.00,146.50 L140.50,146.50 L141.00,146.50 L141.50,146.50 L142.00,146.50 L142.50,146.50 L143.00,146.50 L142.50,147.00 L142.00,147.00 L141.50,147.00 L141.00,147.00 L140.50,147.00 L140.00,147.00 L139.50,147.00 L139.00,147.50 L139.50,147.50 L140.00,147.50 L140.50,147.50 L141.00,147.50 L141.50,147.50 L142.00,147.50 L141.50,148.00 L141.00,148.00 L140.50,148.00 L140.00,148.00 L139.50,148.00 L139.00,148.00 L138.50,148.50 L139.00,148.50 L139.50,148.50 L140.00,148.50 L140.50,148.50 L141.00,148.50 L140.50,149.00 L140.00,149.00 L139.50,149.00 L139.00,149.00 L138.50,149.00 L138.00,149.00 L137.50,149.50 L138.00,149.50 L138.50,149.50 L139.00,149.50 L139.50,149.50 L140.00,149.50 L139.50,150.00 L139.00,150.00 L138.50,150.00 L138.00,150.00 L137.50,150.00 L137.00,150.50 L137.50,150.50 L138.00,150.50 L138.50,150.50 L139.00,150.50 L139.50,150.50 L139.00,151.00 L138.50,151.00 L138.00,151.00 L137.50,151.00 L137.00,151.00 L136.50,151.00 L136.00,151.50 L136.50,151.50 L137.00,151.50 L137.50,151.50 L138.00,151.50 L138.50,151.50 L138.00,152.00 L137.50,152.00 L137.00,152.00 L136.50,152.00 L136.00,152.00 L135.50,152.00 L135.00,152.50 L134.50,152.50 L134.00,153.00 L134.50,153.00 L135.00,153.00 L135.50,152.50 L136.00,152.50 L136.50,152.50 L137.00,152.50 L137.50,152.50 L138.00,152.50 L138.50,152.00" stroke-width="1.030"/>
<path d="M134.50,148.00 L135.00,148.00 L135.50,148.00 L135.00,148.50 L134.50,148.50 L134.00,148.50 L133.50,148.50 L133.00,149.00 L132.50,149.00 L133.00,149.50 L133.50,149.00 L134.00,149.00 L134.50,149.00 L134.00,149.50 L133.50,149.50" stroke-width="0.675"/>
<path d="M68.50,150.00 L69.00,150.00 L69.50,150.00 L70.00,150.00 L69.50,150.50 L69.00,150.50 L68.50,150.50 L68.00,151.00 L68.50,151.00 L69.00,151.00 L69.50,151.00 L70.00,150.50 L70.00,151.00 L69.50,151.50 L69.00,151.50 L68.50,151.50 L68.00,151.50 L68.00,152.00 L68.50,152.00 L69.00,152.00 L69.50,152.00 L70.00,151.50" stroke-width="0.710"/>
<path d="M68.00,152.50 L68.50,152.50 L69.00,152.50 L69.50,152.50 L69.00,153.00 L68.50,153.00 L68.00,153.00 L67.50,153.50 L68.00,153.50 L68.50,153.50 L69.00,153.50 L69.50,153.00 L69.50,153.50 L69.00,154.00 L68.50,154.00 L68.00,154.00 L67.50,154.00 L67.50,154.50 L68.00,154.50 L68.50,154.50 L69.00,154.50 L69.50,154.00" stroke-width="0.710"/>
<path d="M135.50,153.00 L136.00,153.00 L136.50,153.00 L137.00,153.00 L137.50,153.00 L137.00,153.50 L136.50,153.50 L136.00,153.50 L135.50,153.50 L135.00,153.50 L134.50,153.50 L134.00,153.50 L133.50,153.50 L133.50,154.00 L134.00,154.00 L134.50,154.00 L135.00,154.00 L135.50,154.00 L136.00,154.00 L136.50,154.00" stroke-width="0.700"/>
<path d="M133.50,154.50 L134.00,154.50 L134.50,154.50 L135.00,154.50 L135.50,154.50 L135.00,155.00 L134.50,155.00 L134.00,155.00 L133.50,155.00 L133.50,155.50 L134.00,155.50 L134.50,155.50 L135.00,155.50 L135.50,155.00 L135.50,155.50 L135.00,156.00 L134.50,156.00 L134.00,156.00 L133.50,156.00 L133.50,156.50 L134.00,156.50 L134.50,156.50 L135.00,156.50 L135.50,156.00 L135.50,156.50 L135.00,157.00 L134.50,157.00 L134.00,157.00 L134.00,157.50 L134.50,157.50 L135.00,157.50 L135.50,157.00 L135.50,157.50 L136.00,157.50 L135.50,158.00 L135.00,158.00 L134.50,158.00 L134.00,158.00 L134.50,158.50 L135.00,158.50 L135.50,158.50 L136.00,158.00 L136.00,158.50 L136.50,158.50 L136.00,159.00 L135.50,159.00 L135.00,159.00 L134.50,159.00 L135.00,159.50 L135.50,159.50 L136.00,159.50 L136.50,159.00 L136.50,159.50 L136.00,160.00 L135.50,160.00 L135.00,160.00 L135.00,160.50 L135.50,160.50 L136.00,160.50 L136.50,160.00 L136.50,160.50 L137.00,160.50 L136.50,161.00 L136.00,161.00 L135.50,161.00 L135.00,161.00 L135.50,161.50 L136.00,161.50 L136.50,161.50 L137.00,161.00 L137.00,161.50 L136.50,162.00 L136.00,162.00 L135.50,162.00 L135.50,162.50 L136.00,162.50 L136.50,162.50 L137.00,162.00 L137.00,162.50 L136.50,163.00 L136.00,163.00 L135.50,163.00 L135.50,163.50 L136.00,163.50 L136.50,163.50 L137.00,163.00 L137.50,163.00 L137.00,163.50 L137.50,163.50 L137.00,164.00 L136.50,164.00 L136.00,164.00 L136.00,164.50 L136.50,164.50 L137.00,164.50 L137.50,164.00 L137.50,164.50 L137.00,165.00 L136.50,165.00 L136.00,165.00 L136.00,165.50 L136.50,165.50 L137.00,165.50 L137.50,165.00 L138.00,165.00 L137.50,165.50 L138.00,165.50 L137.50,166.00 L137.00,166.00 L136.50,166.00 L136.50,166.50 L137.00,166.50 L137.50,166.50 L138.00,166.00 L138.00,166.50 L137.50,167.00 L137.00,167.00 L136.50,167.00 L136.50,167.50 L137.00,167.50 L137.50,167.50 L138.00,167.00 L138.00,167.50 L138.50,167.50 L138.00,168.00 L137.50,168.00 L137.00,168.00 L136.50,168.00 L137.00,168.50 L137.50,168.50 L138.00,168.50 L138.50,168.00 L138.50,168.50 L138.00,169.00 L137.50,169.00 L137.00,169.00 L137.00,169.50 L137.50,169.50 L138.00,169.50 L138.50,169.00 L138.50,169.50 L138.00,170.00 L137.50,170.00 L137.00,170.00 L137.00,170.50 L137.50,170.50 L138.00,170.50 L138.50,170.00 L139.00,170.00 L138.50,170.50 L139.00,170.50 L138.50,171.00 L138.00,171.00 L137.50,171.00 L137.50,171.50 L138.00,171.50 L138.50,171.50 L139.00,171.00 L139.00,171.50 L138.50,172.00 L138.00,172.00 L137.50,172.00 L137.50,172.50 L138.00,172.50 L138.50,172.50 L139.00,172.00 L139.00,172.50 L139.50,172.50 L139.00,173.00 L138.50,173.00 L138.00,173.00 L137.50,173.00 L137.50,173.50 L138.00,173.50 L138.50,173.50 L139.00,173.50 L139.50,173.00 L139.50,173.50 L139.00,174.00 L138.50,174.00 L138.00,174.00 L137.50,174.00 L137.00,174.00 L136.50,174.00 L136.00,174.00 L135.50,174.00 L135.00,174.00 L134.50,174.00 L134.00,174.00 L133.50,174.00 L133.00,174.00 L132.50,174.00 L132.00,174.00 L131.50,174.00 L131.00,174.00 L130.50,174.00 L130.00,174.00 L129.50,174.00 L129.00,174.50 L128.50,174.50 L128.00,175.00 L127.50,175.00 L127.00,175.50 L126.50,175.50 L126.00,176.00 L125.50,176.00 L125.00,176.50 L124.50,176.50 L124.00,177.00 L123.50,177.00 L123.00,177.50 L122.50,177.50 L122.00,178.00 L121.50,178.00 L121.00,178.50 L120.50,178.50 L120.00,179.00 L119.50,179.00 L119.00,179.50 L118.50,179.50 L118.00,180.00 L117.50,180.00 L117.00,180.50 L116.50,180.50 L116.00,181.00 L116.50,181.00 L117.00,181.00 L117.50,180.50 L118.00,180.50 L118.50,180.00 L119.00,180.00 L119.50,179.50 L120.00,179.50 L120.50,179.00 L121.00,179.00 L121.50,178.50 L122.00,178.50 L122.50,178.00 L123.00,178.00 L123.50,177.50 L124.00,177.50 L124.50,177.00 L125.00,177.00 L125.50,176.50 L126.00,176.50 L126.50,176.00 L127.00,176.00 L127.50,175.50 L128.00,175.50 L128.50,175.00 L129.00,175.00 L129.50,174.50 L130.00,174.50 L130.50,174.50 L131.00,174.50 L131.50,174.50 L132.00,174.50 L132.50,174.50 L133.00,174.50 L133.50,174.50 L134.00,174.50 L134.50,174.50 L135.00,174.50 L135.50,174.50 L136.00,174.50 L136.50,174.50 L137.00,174.50 L137.50,174.50 L138.00,174.50 L138.50,174.50 L139.00,174.50 L139.50,174.00 L139.50,174.50 L139.00,175.00 L138.50,175.00 L138.00,175.00 L137.50,175.00 L137.00,175.00 L136.50,175.00 L136.00,175.00 L135.50,175.00 L135.00,175.00 L134.50,175.00 L134.00,175.00 L133.50,175.00 L133.00,175.00 L132.50,175.00 L132.00,175.00 L131.50,175.00 L131.00,175.00 L130.50,175.00 L130.00,175.00 L129.50,175.00 L129.00,175.50 L128.50,175.50 L128.00,176.00 L127.50,176.00 L127.00,176.50 L126.50,176.50 L126.00,177.00 L125.50,177.00 L125.00,177.50 L124.50,177.50 L124.00,178.00 L123.50,178.00 L123.00,178.50 L122.50,178.50 L122.00,179.00 L121.50,179.00 L121.00,179.50 L120.50,179.50 L120.00,180.00 L119.50,180.00 L119.00,180.50 L118.50,180.50 L118.00,181.00 L117.50,181.00 L117.00,181.50 L116.50,181.50 L116.00,181.50 L115.50,181.50 L115.00,181.50 L114.50,182.00 L114.00,182.00 L113.50,182.50 L113.00,182.50 L112.50,183.00 L112.00,183.00 L111.50,183.50 L111.00,183.50 L110.50,184.00 L110.00,184.00 L109.50,184.50 L109.00,184.50 L108.50,185.00 L108.00,185.00 L107.50,185.50 L107.00,185.50 L106.50,186.00 L106.00,186.00 L105.50,186.50 L105.00,186.50 L104.50,187.00 L104.00,187.00 L103.50,187.50 L103.00,187.50 L102.50,188.00 L102.00,188.00 L101.50,188.50 L101.00,188.50 L100.50,189.00 L100.00,189.00 L99.50,189.00 L99.00,189.00 L98.50,188.50 L98.00,188.50 L97.50,188.00 L97.00,188.00 L96.50,187.50 L96.00,187.50 L95.50,187.00 L95.00,187.00 L94.50,186.50 L94.00,186.50 L93.50,186.00 L93.00,186.00 L92.50,185.50 L92.00,185.50 L91.50,185.00 L91.00,185.00 L90.50,184.50 L90.00,184.50 L89.50,184.00 L89.00,184.00 L88.50,183.50 L88.00,183.50 L87.50,183.00 L87.00,183.00 L86.50,182.50 L86.00,182.50 L85.50,182.00 L85.00,182.00 L84.50,181.50 L84.00,181.50 L83.50,181.00 L83.00,180.50 L82.50,180.50 L82.00,180.00 L81.50,180.00 L81.00,179.50 L80.50,179.50 L80.00,179.00 L79.50,179.00 L79.00,178.50 L78.50,178.50 L78.00,178.00 L77.50,178.00 L77.00,177.50 L76.50,177.50 L76.00,177.00 L75.50,177.00 L75.00,176.50 L74.50,176.50 L74.00,176.00 L73.50,176.00 L73.00,175.50 L72.50,175.50 L72.00,175.00 L71.50,175.00 L71.00,174.50 L70.50,174.50 L70.00,174.00 L69.50,174.00 L69.00,174.00 L68.50,174.00 L68.00,174.00 L67.50,174.00 L67.00,174.00 L66.50,174.00 L66.00,173.50 L65.50,173.00 L65.00,172.50 L64.50,172.00 L64.50,171.50 L64.50,171.00 L64.50,170.50 L64.50,170.00 L65.00,169.50 L65.00,169.00 L65.00,168.50 L65.00,168.00 L65.00,167.50 L65.50,167.00 L65.50,166.50 L65.50,166.00 L65.50,165.50 L65.50,165.00 L66.00,164.50 L66.00,164.00 L66.00,163.50 L66.00,163.00 L66.50,162.50 L66.50,162.00 L66.50,161.50 L66.50,161.00 L66.50,160.50 L67.00,160.00 L67.00,159.50 L67.00,159.00 L67.00,158.50 L67.00,158.00 L67.00,157.50 L67.00,157.00 L67.00,156.50 L67.00,156.00 L67.00,155.50 L67.50,155.00 L68.00,155.00 L68.50,155.00 L69.00,155.00 L68.50,155.50 L68.00,155.50 L67.50,155.50 L67.50,156.00 L68.00,156.00 L68.50,156.00 L69.00,155.50 L69.00,156.00 L68.50,156.50 L68.00,156.50 L67.50,156.50 L67.50,157.00 L68.00,157.00 L68.50,157.00 L68.00,157.50 L67.50,157.50 L67.50,158.00 L68.00,158.00 L68.50,157.50 L68.50,158.00 L68.00,158.50 L67.50,158.50 L67.50,159.00 L68.00,159.00 L68.50,158.50 L68.50,159.00 L68.00,159.50 L67.50,159.50 L67.50,160.00 L68.00,160.00 L68.50,159.50 L68.50,160.00 L68.00,160.50 L67.50,160.50 L67.00,160.50 L67.00,161.00 L67.50,161.00 L68.00,161.00 L68.50,160.50 L68.50,161.00 L68.00,161.50 L67.50,161.50 L67.00,161.50 L67.00,162.00 L67.50,162.00 L68.00,162.00 L67.50,162.50 L67.00,162.50 L66.50,163.00 L67.00,163.00 L67.50,163.00 L68.00,162.50 L68.00,163.00 L67.50,163.50 L67.00,163.50 L66.50,163.50 L66.50,164.00 L67.00,164.00 L67.50,164.00 L68.00,163.50" stroke-width="2.100"/>
<path d="M66.50,164.50 L67.00,164.50 L67.50,164.50 L67.00,165.00 L66.50,165.00 L66.00,165.00 L66.00,165.50 L66.50,165.50 L67.00,165.50 L67.50,165.00 L67.50,165.50 L67.00,166.00 L66.50,166.00 L66.00,166.00 L66.00,166.50 L66.50,166.50 L67.00,166.50 L66.50,167.00 L66.00,167.00 L65.50,167.50 L66.00,167.50 L66.50,167.50 L67.00,167.00 L67.00,167.50 L66.50,168.00 L66.00,168.00 L65.50,168.00 L65.50,168.50 L66.00,168.50 L66.50,168.50 L67.00,168.00" stroke-width="0.755"/>
<path d="M65.50,169.00 L66.00,169.00 L66.50,169.00 L66.00,169.50 L65.50,169.50 L65.00,170.00 L65.50,170.00 L66.00,170.00 L66.50,169.50 L66.50,170.00 L66.00,170.50 L65.50,170.50 L65.00,170.50 L65.00,171.00 L65.50,171.00 L66.00,171.00 L66.50,170.50" stroke-width="0.685"/>
<path d="M65.00,171.50 L65.50,171.50 L66.00,171.50 L65.50,172.00 L65.00,172.00 L64.50,172.50 L64.00,172.50 L64.00,173.00 L64.50,173.00 L65.00,173.00 L65.50,172.50 L66.00,172.00 L66.00,172.50 L66.00,173.00 L65.50,173.50 L65.00,173.50 L64.50,173.50 L64.00,173.50 L64.00,174.00 L64.50,174.00 L65.00,174.00 L65.50,174.00 L66.00,174.00 L65.50,174.50 L65.00,174.50 L64.50,174.50 L64.00,174.50 L64.50,175.00 L65.00,175.00 L65.50,175.00 L66.00,174.50 L66.50,174.50 L67.00,174.50 L67.50,174.50 L68.00,174.50 L68.50,174.50 L69.00,174.50 L69.50,174.50 L70.00,174.50 L69.50,175.00 L69.00,175.00 L68.50,175.00 L68.00,175.00 L67.50,175.00 L67.00,175.00 L66.50,175.00 L66.00,175.00 L65.50,175.50 L65.00,175.50" stroke-width="0.845"/>
<path d="M129.50,175.50 L130.00,175.50 L130.50,175.50 L131.00,175.50 L131.50,175.50 L132.00,175.50 L132.50,175.50 L133.00,175.50 L133.50,175.50 L134.00,175.50 L134.50,175.50 L135.00,175.50 L135.50,175.50 L136.00,175.50 L136.50,175.50 L137.00,175.50 L137.50,175.50 L138.00,175.50 L138.50,175.50" stroke-width="0.695"/>
<path d="M92.50,186.50 L93.00,186.50 L93.50,186.50 L93.00,187.00 L93.50,187.00 L94.00,187.00 L94.50,187.00 L94.00,187.50 L94.50,187.50 L95.00,187.50 L95.50,187.50 L95.00,188.00 L95.50,188.00 L96.00,188.00 L96.50,188.00 L96.00,188.50 L96.50,188.50 L97.00,188.50 L97.50,188.50 L97.50,189.00 L98.00,189.00 L98.50,189.00 L98.50,189.50 L99.00,189.50 L99.50,189.50 L100.00,189.50 L100.50,189.50 L101.00,189.00 L101.50,189.00 L102.00,188.50 L102.50,188.50 L103.00,188.00 L103.50,188.00 L104.00,187.50 L104.50,187.50 L105.00,187.00 L105.50,187.00 L106.00,186.50 L106.50,186.50 L107.00,186.50 L107.50,186.50 L108.00,186.50" stroke-width="0.810"/>
</g>
</svg>
