<?xml version="1.0" encoding="UTF-8"?>
<svg xmlns="http://www.w3.org/2000/svg"
     width="200mm" height="250mm"
     viewBox="0 0 200 250">
<g fill="none" stroke="black" stroke-linecap="round" stroke-linejoin="round">
<path d="M107.50,101.75 L107.92,103.30 L107.17,104.21 L107.90,105.79" stroke-width="0.250" opacity="0.70"/>
<path d="M108.77,108.39 L108.71,109.27 L108.85,110.10 L110.20,111.37 L110.62,112.00 L111.67,112.75 L112.58,113.25 L114.19,113.92 L114.63,113.85 L115.53,113.89 L117.17,114.18 L118.06,114.02 L119.44,114.04 L120.97,114.11 L121.21,113.55 L122.94,113.69 L123.23,113.07 L124.88,113.10 L126.36,112.99 L127.08,112.47 L128.29,112.15 L129.61,111.84 L130.23,111.14 L131.85,110.91 L132.69,110.25 L133.61,109.61 L134.61,108.99 L135.09,108.07 L136.26,107.47 L137.06,106.65 L138.07,105.92 L138.84,105.05 L139.31,104.01 L139.49,102.81 L139.43,101.49 L139.77,100.36 L140.33,99.33" stroke-width="0.250" opacity="0.70"/>
<path d="M140.85,96.95 L140.99,95.65 L141.07,94.28 L141.19,92.89 L142.25,91.92 L142.09,90.28 L143.16,89.23 L144.09,88.08" stroke-width="0.250" opacity="0.70"/>
<path d="M145.45,85.59 L147.54,85.18 L149.04,84.68 L151.28,84.90 L152.53,85.08 L153.37,85.55 L154.83,86.69 L155.47,87.63 L156.31,88.73 L156.50,89.50 L158.15,90.97 L158.29,91.62 L159.36,92.68 L160.31,93.61 L160.84,94.24 L161.49,94.85 L163.33,95.97 L163.62,96.22" stroke-width="0.250" opacity="0.70"/>
<path d="M165.68,97.20 L166.28,97.38 L167.39,97.70 L168.84,98.09 L169.91,98.21 L171.51,98.56 L172.69,98.69 L174.02,98.91 L175.07,99.03" stroke-width="0.250" opacity="0.70"/>
<path d="M177.62,99.68 L178.59,99.97 L179.93,100.53 L181.35,101.22 L182.15,101.72 L183.34,102.54 L184.62,103.55 L185.48,104.52" stroke-width="0.250" opacity="0.70"/>
<path d="M107.99,103.35 L107.28,104.30 L107.09,105.46 L107.77,106.98" stroke-width="0.250" opacity="0.70"/>
<path d="M113.45,114.13 L114.40,114.35 L115.98,114.75 L117.48,115.00 L118.15,114.76 L119.17,114.62 L120.99,114.85 L122.15,114.74 L122.82,114.33 L124.61,114.44 L125.37,114.00 L126.52,113.71 L127.98,113.53" stroke-width="0.250" opacity="0.70"/>
<path d="M130.27,112.72 L131.11,112.10 L132.26,111.59 L133.16,110.93 L134.21,110.31 L135.27,109.65" stroke-width="0.250" opacity="0.70"/>
<path d="M136.52,107.81 L137.81,107.17 L138.46,106.19 L139.27,105.27 L139.80,104.19 L139.85,102.88 L139.81,101.52" stroke-width="0.250" opacity="0.70"/>
<path d="M141.14,99.52 L140.92,98.07 L141.79,97.17 L141.91,95.88 L141.86,94.48 L142.03,93.16" stroke-width="0.250" opacity="0.70"/>
<path d="M145.41,87.46 L146.42,86.54 L147.50,85.76 L149.15,85.47 L150.52,85.33 L152.14,85.74 L153.15,86.27 L154.27,87.20 L155.25,88.27" stroke-width="0.250" opacity="0.70"/>
<path d="M156.88,90.44 L156.95,91.13 L157.70,92.11 L158.61,93.11 L159.52,94.03" stroke-width="0.250" opacity="0.70"/>
<path d="M161.82,95.86 L162.22,96.26 L163.26,96.89 L164.74,97.63 L165.35,97.85 L166.86,98.42 L167.71,98.55 L168.66,98.63 L170.17,98.92" stroke-width="0.250" opacity="0.70"/>
<path d="M176.69,99.87 L177.14,99.77 L178.62,100.27 L180.45,101.03 L180.96,101.22 L181.72,101.65 L183.68,102.81 L183.94,103.26 L185.11,104.33" stroke-width="0.250" opacity="0.70"/>
<path d="M108.05,102.02 L107.19,102.96 L107.38,104.39" stroke-width="0.250" opacity="0.70"/>
<path d="M106.93,106.67 L107.11,107.89 L108.07,109.40 L108.15,110.33" stroke-width="0.250" opacity="0.70"/>
<path d="M111.89,113.97 L112.88,114.42 L114.05,114.78 L115.91,115.35 L116.76,115.31 L118.21,115.48 L119.64,115.58 L120.53,115.36 L121.32,115.04 L123.35,115.29 L124.27,114.95 L125.45,114.69 L126.91,114.53 L127.30,113.79 L128.99,113.65 L130.08,113.17" stroke-width="0.250" opacity="0.70"/>
<path d="M135.10,111.15 L135.42,110.07 L136.93,109.54 L137.11,108.32 L138.50,107.65 L139.34,106.70 L139.39,105.33 L140.63,104.55" stroke-width="0.250" opacity="0.70"/>
<path d="M142.57,95.98 L142.58,94.64 L143.03,93.50 L143.40,92.32 L143.55,91.00 L144.33,89.99 L145.38,89.13 L145.77,87.97 L147.18,87.38 L147.77,86.50 L148.63,85.94 L150.67,86.23 L151.51,86.27 L152.97,87.01 L153.64,87.67 L154.48,88.63" stroke-width="0.250" opacity="0.70"/>
<path d="M156.02,90.76 L156.80,91.82 L156.75,92.42 L158.66,93.93 L158.58,94.37 L159.29,95.13 L161.68,96.63 L162.16,97.08 L162.53,97.38 L164.28,98.25 L165.11,98.54 L166.40,98.94 L167.82,99.29 L168.66,99.26 L170.12,99.48 L171.21,99.48 L172.65,99.66 L173.58,99.60 L174.79,99.73 L176.20,100.00 L178.22,100.65 L178.44,100.47 L179.75,100.92 L180.84,101.36 L181.97,101.92 L182.89,102.51 L184.57,103.62 L185.05,104.30" stroke-width="0.250" opacity="0.70"/>
<path d="M107.06,101.53 L107.97,103.36 L107.40,104.44 L107.40,105.75 L107.41,107.02 L107.91,108.46 L107.97,109.57 L108.10,110.60 L108.73,111.71 L109.54,112.72 L110.44,113.59 L111.72,114.42 L112.94,115.02 L114.67,115.70 L115.69,115.88 L116.83,116.01 L118.04,116.09 L119.73,116.35" stroke-width="0.250" opacity="0.70"/>
<path d="M122.19,116.19 L123.04,115.84 L123.81,115.40 L126.17,115.71 L126.99,115.20" stroke-width="0.250" opacity="0.70"/>
<path d="M129.78,114.62 L130.74,114.05 L131.26,113.20 L132.76,112.80 L134.87,112.67 L135.42,111.70 L136.08,110.74 L137.00,109.86" stroke-width="0.250" opacity="0.70"/>
<path d="M138.86,107.98 L139.71,106.95 L141.00,106.14 L141.03,104.69 L141.29,103.38" stroke-width="0.250" opacity="0.70"/>
<path d="M143.41,98.84 L143.06,97.32 L142.91,95.92 L143.17,94.73" stroke-width="0.250" opacity="0.70"/>
<path d="M146.09,89.68 L146.47,88.64 L147.38,87.94 L147.94,87.18 L149.03,86.87 L150.14,86.79 L150.62,86.68" stroke-width="0.250" opacity="0.70"/>
<path d="M153.94,89.12 L154.14,89.86 L155.15,91.06 L155.65,92.01 L156.33,92.99 L157.58,94.19 L158.35,95.08 L158.97,95.80 L160.88,97.07 L161.69,97.70 L163.14,98.54 L163.75,98.83" stroke-width="0.250" opacity="0.70"/>
<path d="M169.00,100.06 L170.36,100.18 L170.95,99.89 L172.34,100.00" stroke-width="0.250" opacity="0.70"/>
<path d="M175.35,100.42 L177.02,100.78 L177.61,100.67 L179.15,101.11 L180.04,101.30 L181.43,101.85 L181.44,101.80 L183.17,102.74 L184.35,103.56" stroke-width="0.250" opacity="0.70"/>
<path d="M85.29,107.89 L84.85,106.79 L84.43,105.78 L83.41,104.55 L82.90,103.66 L82.18,102.71 L81.17,101.67 L80.51,100.84 L79.51,99.86 L79.36,99.31 L78.39,98.35 L77.09,97.23" stroke-width="0.250" opacity="0.70"/>
<path d="M75.19,95.25 L74.60,94.40 L73.19,93.09 L72.84,92.24 L72.13,91.14 L71.34,89.87 L71.05,88.71 L70.64,87.40 L70.26,85.99 L70.54,84.82 L69.93,83.13 L70.06,81.76 L70.31,80.44" stroke-width="0.250" opacity="0.70"/>
<path d="M70.66,77.73 L72.12,77.06 L71.96,75.61 L72.66,74.61 L72.33,73.12 L72.77,72.05 L73.05,70.92 L73.69,70.00 L73.13,68.51 L73.80,67.67 L73.93,66.58 L72.78,64.87" stroke-width="0.250" opacity="0.70"/>
<path d="M73.80,63.23 L72.51,61.57 L72.64,60.67 L72.32,59.58 L71.92,58.50 L71.21,57.28 L70.81,56.26 L70.49,55.29 L70.07,54.28 L69.47,53.18 L67.78,51.53" stroke-width="0.250" opacity="0.70"/>
<path d="M66.97,49.42 L66.19,48.11 L66.18,47.11 L66.00,45.94" stroke-width="0.250" opacity="0.70"/>
<path d="M65.38,43.05 L65.30,41.47 L65.87,40.06 L65.80,38.23 L66.96,37.04 L68.51,36.22 L69.76,35.49 L71.96,35.50 L72.59,34.94" stroke-width="0.250" opacity="0.70"/>
<path d="M75.23,34.83 L76.47,34.79 L77.62,34.69 L78.85,34.61 L80.20,34.58" stroke-width="0.250" opacity="0.70"/>
<path d="M83.04,33.45 L84.19,33.05 L85.31,32.59 L86.61,32.19 L88.17,31.90 L89.19,31.36 L90.44,30.95 L91.91,30.69 L93.09,30.35 L94.26,30.09 L95.14,29.81 L97.08,30.19 L97.68,30.06 L99.25,30.57" stroke-width="0.250" opacity="0.70"/>
<path d="M85.64,107.13 L84.92,105.92 L83.80,104.59 L83.09,103.52 L82.33,102.50 L81.26,101.36 L80.89,100.61 L80.34,99.80 L79.13,98.66" stroke-width="0.250" opacity="0.70"/>
<path d="M77.47,96.76 L76.38,95.67 L75.89,94.85 L74.89,93.75" stroke-width="0.250" opacity="0.70"/>
<path d="M74.56,92.24 L73.19,90.79 L72.79,89.74 L72.27,88.53 L72.13,87.43 L71.49,85.98 L71.07,84.56" stroke-width="0.250" opacity="0.70"/>
<path d="M71.17,81.98 L71.26,80.65 L72.17,79.71 L71.70,78.09" stroke-width="0.250" opacity="0.70"/>
<path d="M74.52,67.50 L74.39,66.23 L74.50,65.11" stroke-width="0.250" opacity="0.70"/>
<path d="M74.23,62.73 L74.23,61.67 L73.44,60.27 L72.82,58.99 L72.65,57.99 L72.07,56.82 L71.82,55.85 L71.07,54.66 L69.83,53.24 L70.13,52.59 L69.18,51.31 L68.96,50.38" stroke-width="0.250" opacity="0.70"/>
<path d="M67.88,48.10 L67.32,46.88 L66.57,45.49 L66.02,44.10 L66.24,42.99 L66.22,41.63 L66.50,40.31 L66.91,38.98" stroke-width="0.250" opacity="0.70"/>
<path d="M72.73,35.97 L74.11,35.94 L75.28,35.84 L76.63,35.84" stroke-width="0.250" opacity="0.70"/>
<path d="M78.93,35.53 L80.10,35.32 L81.12,34.96 L82.91,34.92 L83.77,34.36 L85.29,34.08 L85.69,33.21" stroke-width="0.250" opacity="0.70"/>
<path d="M92.01,31.02 L92.62,30.36 L95.24,30.80 L95.50,30.16 L96.97,30.26" stroke-width="0.250" opacity="0.70"/>
<path d="M85.26,106.89 L84.29,105.50 L83.90,104.47 L83.50,103.50 L82.93,102.51 L82.32,101.54 L81.33,100.42" stroke-width="0.250" opacity="0.70"/>
<path d="M79.89,98.50 L79.09,97.51 L78.71,96.73 L77.41,95.48 L76.94,94.62 L76.08,93.55 L75.60,92.62 L74.69,91.44 L73.79,90.21 L73.27,89.12 L73.16,88.19 L72.38,86.83 L71.83,85.52 L72.08,84.54" stroke-width="0.250" opacity="0.70"/>
<path d="M72.32,82.22 L73.03,81.28 L73.19,80.03" stroke-width="0.250" opacity="0.70"/>
<path d="M73.47,77.43 L74.23,76.42 L74.13,74.98 L74.66,73.84 L75.05,72.65 L75.71,71.59 L74.98,69.85 L75.88,68.96 L75.41,67.42 L75.59,66.25" stroke-width="0.250" opacity="0.70"/>
<path d="M75.42,63.76 L75.20,62.50 L75.31,61.45 L74.58,60.03 L74.43,58.96 L73.31,57.45" stroke-width="0.250" opacity="0.70"/>
<path d="M71.16,51.38 L69.09,49.54 L69.03,48.68" stroke-width="0.250" opacity="0.70"/>
<path d="M67.48,46.16 L67.47,45.21 L67.40,44.16 L67.18,42.96 L67.56,41.99 L67.94,40.95 L68.01,39.73 L68.59,38.77 L69.38,38.00 L70.30,37.42 L71.22,36.97 L73.04,37.10 L73.50,36.62 L75.67,37.02 L76.75,36.87 L77.57,36.54 L78.98,36.44 L80.29,36.20 L81.75,35.97 L82.16,35.16 L84.14,35.09 L85.18,34.51 L85.96,33.78 L87.65,33.49 L88.38,32.73 L89.42,32.13 L91.23,31.95 L91.90,31.24 L93.39,31.00 L94.13,30.46 L95.77,30.47 L96.65,30.22 L97.62,30.15 L99.33,30.61" stroke-width="0.250" opacity="0.70"/>
</g>
</svg>
